<?xml version="1.0" standalone="no"?>
<!DOCTYPE svg PUBLIC "-//W3C//DTD SVG 20010904//EN"
 "http://www.w3.org/TR/2001/REC-SVG-20010904/DTD/svg10.dtd">
<svg version="1.0" xmlns="http://www.w3.org/2000/svg"
 width="1050.000000pt" height="549.000000pt" viewBox="0 0 1050.000000 549.000000"
 preserveAspectRatio="xMidYMid meet">
<metadata>
Created by potrace 1.13, written by Peter Selinger 2001-2015
</metadata>
<g transform="translate(0.000000,549.000000) scale(0.100000,-0.100000)"
fill="#000000" stroke="none">
<path d="M9280 5481 c0 -5 -9 -13 -20 -16 -11 -3 -20 -12 -20 -19 0 -8 -7 -19
-15 -26 -8 -7 -15 -19 -15 -26 0 -8 -8 -22 -17 -32 -34 -35 -63 -76 -63 -89 0
-20 22 -27 32 -9 5 9 16 16 23 16 8 0 15 4 15 9 0 14 146 24 167 11 16 -10 16
-11 1 -6 -11 3 -22 -2 -28 -13 -9 -19 -70 -35 -70 -19 0 4 -9 8 -20 8 -12 0
-17 -5 -14 -13 4 -11 -37 -57 -52 -57 -3 0 -16 12 -29 26 -23 24 -25 25 -54
10 -16 -9 -32 -20 -36 -26 -7 -12 -131 -70 -149 -70 -7 0 -22 -11 -34 -25 -12
-14 -30 -25 -41 -25 -11 0 -21 -9 -24 -21 -7 -25 12 -59 31 -59 8 0 12 -6 9
-13 -6 -17 -2 -23 49 -68 32 -28 48 -36 68 -32 15 3 26 1 26 -6 0 -14 22 -14
57 1 15 7 46 13 68 13 46 0 58 24 29 56 -17 18 -16 19 14 19 23 0 43 11 74 40
28 26 52 40 70 40 19 0 29 7 34 22 3 12 14 34 24 50 l17 28 38 -30 c26 -21 44
-28 60 -24 18 4 25 1 30 -15 6 -21 8 -21 43 10 56 48 339 326 348 341 4 7 -4
3 -18 -9 -13 -13 -29 -23 -35 -23 -6 0 -19 -12 -29 -27 -9 -15 -19 -23 -21
-17 -2 6 -26 9 -60 6 -44 -3 -58 0 -65 12 -6 10 -22 16 -45 16 -43 0 -104 20
-119 38 -27 36 -234 73 -234 43z"/>
<path d="M9975 5462 c-162 -147 -530 -494 -795 -752 -149 -144 -363 -345 -371
-348 -15 -6 -10 -22 7 -22 9 0 18 9 21 20 3 11 9 17 14 14 5 -3 9 0 9 5 0 6 5
11 11 11 15 0 59 39 199 174 63 61 154 147 202 190 48 43 84 84 81 90 -3 6 -3
8 2 4 10 -9 39 15 204 171 74 69 139 131 145 136 36 32 269 247 311 287 l50
48 -30 -1 c-18 0 -42 -11 -60 -27z"/>
<path d="M10025 5404 c-49 -47 -121 -113 -160 -146 -89 -77 -254 -228 -370
-338 -49 -47 -142 -133 -205 -190 -63 -57 -178 -162 -255 -234 -457 -429 -784
-738 -990 -937 -66 -63 -257 -247 -423 -408 -167 -161 -307 -290 -310 -287 -3
4 4 13 16 22 12 8 22 18 22 22 0 7 -208 -2 -295 -12 -27 -4 -94 -12 -148 -18
-77 -8 -100 -14 -107 -29 -6 -10 -10 -20 -10 -23 0 -10 28 -7 32 3 6 17 248
42 308 32 30 -5 68 -7 84 -6 17 2 41 -2 55 -10 29 -15 40 -14 -298 -39 -183
-13 -195 -15 -212 -37 -17 -22 -17 -24 2 -37 15 -10 23 -11 33 -3 7 6 56 15
107 21 52 5 115 12 142 16 l47 7 2 -34 c0 -19 1 -39 1 -46 0 -6 6 -9 13 -6 10
4 12 0 8 -11 -5 -12 -2 -15 10 -10 9 3 16 1 16 -5 0 -6 -5 -11 -11 -11 -6 0
-8 -10 -5 -22 3 -13 3 -17 0 -10 -13 28 -29 10 -31 -33 -2 -89 -3 -90 -81 -87
-47 2 -81 -2 -107 -12 -20 -9 -50 -16 -66 -16 -16 0 -29 -4 -29 -10 0 -6 37
-7 98 -2 141 10 185 9 189 -5 8 -23 -37 -33 -189 -44 -126 -9 -156 -14 -172
-30 -25 -23 -13 -36 18 -20 12 7 34 11 47 8 23 -4 23 -4 -2 -6 -29 -1 -51 -21
-47 -42 2 -7 -4 -14 -12 -14 -8 0 -14 -6 -13 -12 2 -7 -6 -15 -17 -18 -11 -4
-17 -11 -14 -17 5 -8 1 -9 -10 -5 -13 5 -19 1 -23 -13 -3 -11 -9 -17 -14 -14
-5 3 -8 0 -7 -8 2 -7 -3 -12 -10 -10 -8 1 -11 -2 -8 -6 3 -5 -3 -17 -14 -27
-11 -10 -20 -15 -20 -10 0 4 -7 2 -15 -5 -8 -7 -13 -16 -10 -20 3 -5 -4 -11
-15 -15 -11 -3 -25 -15 -31 -26 -5 -11 -15 -17 -22 -13 -7 4 -9 4 -6 0 9 -10
-33 -54 -45 -48 -5 3 -6 0 -3 -5 4 -6 0 -16 -8 -23 -8 -7 -15 -9 -15 -5 0 5
-9 0 -20 -10 -11 -10 -17 -22 -14 -26 3 -5 0 -9 -7 -9 -7 0 -24 -10 -37 -22
-14 -13 -22 -17 -18 -10 7 11 -14 12 -109 8 -65 -3 -120 -8 -123 -11 -17 -16
45 -24 90 -11 16 5 36 5 45 1 17 -7 16 -8 -2 -15 -11 -5 -47 -9 -80 -9 -71 -1
-114 -20 -50 -22 22 0 59 0 83 1 23 1 42 -3 42 -8 0 -5 12 -7 26 -4 23 4 25 2
22 -19 -2 -13 -9 -23 -16 -22 -6 2 -12 -2 -12 -8 0 -5 -4 -7 -10 -4 -6 3 -10
-4 -10 -18 0 -14 -6 -29 -13 -35 -19 -16 -57 -3 -57 19 0 11 -7 19 -15 19 -9
0 -15 -9 -15 -24 0 -16 -7 -26 -21 -29 -12 -3 -18 -10 -14 -17 3 -6 1 -9 -6
-8 -7 2 -18 -8 -25 -20 -6 -13 -14 -20 -16 -15 -3 4 -4 3 -2 -3 3 -13 -15 -34
-28 -34 -4 0 -9 26 -9 58 -1 50 -3 53 -9 22 -5 -25 -9 -31 -14 -19 -4 9 -6 22
-4 29 2 7 -3 15 -10 17 -7 3 -10 -1 -7 -9 3 -7 7 -38 8 -68 3 -49 6 -55 27
-56 13 -1 33 10 48 27 28 32 47 37 56 13 3 -9 2 -12 -5 -8 -6 3 -26 -9 -45
-27 -29 -28 -41 -33 -77 -32 -41 1 -42 1 -7 -6 l35 -7 -49 -7 c-27 -4 -66 -7
-87 -7 -36 0 -39 -2 -38 -27 0 -27 1 -27 9 -5 10 23 44 29 109 16 l32 -7 -21
-19 c-11 -10 -20 -25 -20 -33 0 -10 -12 -15 -37 -16 l-38 -2 35 -6 c35 -7 34
-7 -18 -15 -41 -6 -52 -11 -48 -23 3 -8 6 -18 6 -23 0 -5 24 -6 54 -3 31 3 56
1 59 -4 9 -14 10 -464 1 -486 -5 -14 -16 -17 -50 -15 l-43 3 0 90 c0 128 0
127 -11 120 -5 -3 -10 2 -11 12 0 17 -1 17 -8 -1 -9 -24 -2 -78 10 -70 5 3 9
-31 9 -75 l0 -80 -50 -7 c-60 -8 -76 -24 -25 -24 23 0 34 -4 30 -11 -4 -5 -17
-9 -28 -8 -38 2 -45 -1 -43 -18 2 -12 13 -19 34 -21 31 -3 32 -5 33 -50 3 -99
-2 -165 -15 -178 -8 -7 -16 -10 -20 -7 -3 4 -6 1 -6 -5 0 -5 6 -13 13 -15 6
-3 -8 -6 -33 -6 l-45 -1 27 25 c15 14 32 25 37 25 5 0 13 4 16 10 4 6 -18 8
-56 5 -35 -2 -57 0 -50 4 10 6 9 11 -3 23 -8 9 -13 18 -10 21 3 2 -7 7 -22 10
-20 3 -28 0 -31 -14 -3 -11 -13 -19 -22 -19 -14 0 -14 2 -1 11 11 8 8 9 -15 5
-25 -5 -22 -2 15 16 40 20 45 27 46 58 1 19 4 45 7 57 3 13 2 23 -3 23 -9 0
-7 23 6 87 3 18 -1 22 -23 25 -24 3 -28 8 -30 38 -1 19 -4 47 -7 62 -5 25 -3
28 23 28 16 0 34 -7 41 -15 20 -24 50 -19 49 8 0 12 -3 16 -6 10 -8 -22 -43
-15 -43 8 0 14 -5 19 -13 16 -8 -3 -20 -1 -27 3 -12 7 -12 13 0 35 13 24 15
24 21 8 4 -12 1 -20 -10 -25 -14 -6 -14 -7 1 -7 21 -1 59 34 50 45 -4 3 3 2
15 -5 29 -15 76 -14 71 1 -3 7 -19 12 -36 12 -18 -1 -32 2 -32 6 0 4 -9 10
-21 13 -18 5 -19 8 -8 20 8 8 17 13 20 11 3 -2 11 8 18 22 6 14 16 22 21 19 6
-3 10 1 10 9 0 9 5 16 10 16 6 0 10 -4 10 -9 0 -4 11 -6 24 -4 34 7 94 -15 99
-35 3 -9 3 23 1 73 -5 85 -12 115 -21 88 -3 -7 -12 -13 -21 -13 -15 0 -15 2
-2 10 13 8 13 10 -1 10 -9 0 -19 -7 -23 -15 -5 -15 3 -18 34 -16 8 0 5 -4 -7
-11 -13 -6 -23 -16 -23 -22 0 -21 -15 -34 -47 -40 l-32 -7 4 36 c3 21 8 41 11
46 3 5 1 9 -5 9 -23 0 3 29 31 35 27 6 29 10 26 42 -4 47 19 57 25 11 3 -29 4
-28 5 10 2 31 -2 42 -13 42 -17 0 -20 16 -6 24 5 4 12 0 14 -6 3 -7 6 2 6 20
1 18 -4 42 -10 53 -7 15 -7 24 1 34 6 8 9 23 5 33 -3 12 1 27 11 37 15 14 15
18 3 26 -10 6 -15 3 -18 -8 -2 -9 -9 -23 -17 -31 -8 -7 -14 -20 -14 -27 0 -8
-7 -18 -16 -23 -13 -7 -14 -13 -5 -30 8 -16 7 -21 -5 -26 -23 -9 -24 -8 -24
15 0 11 -4 18 -9 14 -5 -3 -11 2 -13 11 -2 13 -10 10 -36 -17 -19 -19 -32 -27
-30 -19 2 9 -4 15 -16 15 -10 0 -23 9 -27 20 -7 19 -8 18 -8 -3 -1 -25 -26
-26 -26 -1 0 8 -10 14 -22 13 -13 0 -27 9 -34 23 -8 16 -21 23 -41 23 -15 0
-28 5 -28 10 0 6 -9 10 -20 10 -11 0 -20 -4 -20 -10 0 -13 -12 -13 -47 2 -15
6 -32 12 -38 12 -6 1 -9 24 -7 54 1 28 -1 52 -5 52 -9 0 -10 280 -1 295 3 6 6
75 7 155 3 610 15 968 32 1001 9 18 15 507 6 516 -4 3 -2 14 4 24 6 13 6 19
-1 19 -5 0 -10 -5 -10 -11 0 -5 -4 -7 -10 -4 -18 11 -11 25 13 25 18 0 19 2 7
10 -12 8 -11 10 6 10 30 0 47 23 31 39 -21 21 18 39 89 40 39 0 80 8 102 18
20 10 45 17 57 18 11 0 19 6 18 13 -2 6 2 12 7 12 18 0 10 26 -15 50 -14 13
-25 29 -25 37 0 7 -5 13 -11 13 -5 0 -7 5 -4 10 4 6 1 18 -7 27 -12 15 -9 16
27 10 63 -10 156 40 142 76 -3 8 -1 20 3 28 22 35 -44 53 -76 22 -13 -14 -16
-14 -12 -3 3 8 9 23 13 32 5 13 1 20 -17 27 -24 9 -44 40 -50 76 -3 16 -10 19
-38 17 -19 -2 -36 -8 -38 -13 -2 -5 -12 -9 -23 -9 -10 0 -19 -4 -19 -10 0 -5
-3 -9 -7 -8 -16 4 -53 -27 -53 -45 0 -10 -4 -16 -9 -13 -18 11 -41 -6 -41 -30
0 -15 -6 -24 -15 -24 -8 0 -15 -4 -15 -10 0 -5 -8 -10 -17 -11 -15 0 -15 -2 2
-9 18 -8 17 -9 -7 -9 -16 -1 -28 -5 -28 -10 0 -5 -8 -8 -17 -7 -12 0 -17 -6
-17 -17 2 -13 -3 -16 -17 -12 -17 6 -19 1 -19 -37 0 -77 -2 -83 -15 -64 -7 9
-18 16 -26 16 -11 0 -11 -2 1 -10 8 -5 10 -10 5 -10 -6 0 -17 6 -24 13 -8 7
-11 7 -8 1 7 -13 -51 -26 -68 -16 -19 12 -57 13 -50 2 3 -5 -1 -10 -9 -10 -9
0 -16 6 -16 13 0 8 -4 7 -10 -3 -9 -14 -14 -7 -11 15 1 6 -6 1 -14 -10 -14
-17 -17 -18 -25 -5 -7 10 -10 11 -10 3 0 -7 -5 -13 -11 -13 -5 0 -8 4 -5 8 3
5 -14 9 -37 9 l-42 1 35 -8 c27 -6 15 -8 -50 -9 -58 0 -80 2 -70 9 13 9 13 10
0 11 -36 3 -40 5 -40 14 0 6 4 10 9 10 5 0 13 4 18 9 4 5 3 7 -3 3 -6 -3 -11
0 -11 8 0 11 6 10 27 -5 22 -16 79 -26 65 -11 -3 2 0 10 5 16 8 10 3 16 -19
23 -19 7 -33 7 -36 1 -4 -5 -11 -6 -17 -3 -6 4 -5 10 3 16 11 8 11 9 -1 6 -8
-3 -32 -29 -52 -58 -21 -29 -38 -49 -39 -44 0 5 -4 -1 -9 -14 -11 -27 -3 -52
17 -52 12 0 12 -2 -1 -16 -9 -8 -16 -22 -16 -30 0 -8 -7 -17 -15 -20 -8 -4
-15 -14 -15 -24 0 -10 -7 -21 -16 -24 -8 -3 -12 -11 -8 -17 4 -7 9 -8 13 -1 4
6 11 4 19 -4 11 -12 9 -14 -8 -14 -13 0 -20 -7 -20 -20 0 -11 -5 -20 -11 -20
-7 0 -8 11 -4 30 4 18 3 30 -4 30 -6 0 -8 8 -5 18 3 10 -7 3 -25 -16 -18 -18
-29 -37 -26 -42 4 -6 -1 -10 -9 -10 -9 0 -16 -7 -16 -16 0 -8 4 -13 9 -9 5 3
12 1 16 -5 4 -6 11 -7 17 -4 6 4 8 2 4 -4 -3 -6 0 -14 8 -19 8 -4 16 -19 19
-33 4 -21 4 -20 6 7 0 17 6 35 13 39 8 5 9 2 5 -9 -3 -9 -2 -19 3 -22 4 -3 11
1 13 7 3 7 6 -72 6 -175 1 -154 -2 -189 -13 -193 -9 -3 -14 -18 -14 -35 1 -23
4 -27 15 -18 11 9 13 1 13 -49 0 -36 -5 -62 -11 -64 -9 -3 -9 -9 0 -25 6 -12
11 -38 11 -59 0 -40 8 -42 15 -4 6 31 12 35 28 21 8 -6 21 -9 30 -5 13 5 15
-9 16 -95 1 -100 -9 -128 -29 -78 -5 12 -9 17 -9 10 -1 -6 -3 -18 -6 -25 -4
-9 4 -19 19 -26 20 -9 25 -18 23 -42 -1 -17 -8 -30 -16 -30 -8 0 -11 6 -7 15
6 16 -2 45 -13 45 -10 0 -11 -79 -1 -85 6 -3 10 -11 10 -16 0 -6 -4 -7 -10 -4
-6 4 -10 -6 -10 -22 0 -20 3 -24 9 -14 7 11 10 11 15 0 3 -8 4 -5 1 6 -2 11 0
27 5 35 7 11 10 4 10 -27 0 -36 -2 -41 -20 -36 -18 5 -20 0 -20 -35 0 -34 4
-41 23 -45 12 -2 0 -5 -27 -6 -39 -1 -47 -4 -42 -17 3 -9 6 -22 6 -30 0 -20
19 -7 30 20 7 17 9 13 9 -21 1 -30 5 -43 15 -43 8 0 17 6 19 13 3 6 6 -10 6
-37 1 -50 -6 -59 -12 -16 -7 42 -26 34 -25 -9 0 -23 5 -41 10 -41 7 0 7 -4 0
-13 -6 -6 -10 -32 -10 -57 0 -25 -1 -49 -2 -55 -5 -25 1 -45 14 -45 9 0 16 13
19 33 3 28 4 26 5 -10 l2 -43 -45 0 c-45 0 -45 0 -45 -35 0 -24 5 -35 15 -35
8 0 15 8 15 18 1 16 2 15 15 -2 16 -21 10 -40 -9 -33 -28 11 -33 -13 -38 -181
-6 -164 -5 -172 13 -172 16 0 19 7 19 41 0 27 4 38 11 33 7 -4 9 -21 6 -40 -5
-29 -3 -34 14 -34 10 0 19 -4 19 -10 0 -5 -8 -9 -17 -8 -10 1 -33 0 -52 0 -32
-2 -33 -4 -29 -36 4 -33 3 -34 -29 -33 -19 1 -33 7 -33 15 0 6 -4 12 -10 12
-5 0 -10 7 -10 15 0 12 -4 11 -20 -5 -11 -11 -20 -24 -20 -30 0 -8 -28 -8 -50
0 -3 2 -7 2 -10 2 -3 0 -6 41 -8 91 -3 105 -9 147 -23 147 -6 0 -9 -6 -8 -12
1 -7 -1 -20 -4 -28 -5 -14 -16 -133 -17 -187 0 -18 -6 -23 -27 -23 -58 1 -60
8 -66 220 -3 130 -9 205 -18 224 l-14 29 -16 -39 c-13 -27 -15 -43 -8 -56 6
-10 8 -22 5 -27 -7 -11 -9 -70 -3 -108 3 -18 1 -33 -4 -33 -5 0 -10 5 -10 10
-1 6 -2 16 -3 23 -1 6 -10 11 -21 10 -10 -1 -27 7 -36 18 -16 19 -17 19 -24
-3 -6 -20 -8 -21 -12 -5 -3 10 1 26 9 35 11 15 11 15 -3 5 -12 -10 -18 -10
-29 0 -10 10 -12 9 -7 -5 4 -10 3 -18 -2 -18 -11 0 -36 30 -25 30 5 0 4 4 -2
8 -6 4 -16 16 -22 27 -11 18 -12 17 -6 -10 l5 -30 -25 30 c-14 17 -26 36 -26
43 0 6 -4 12 -10 12 -5 0 -10 -7 -10 -15 0 -8 5 -15 10 -15 6 0 10 -7 10 -16
0 -10 -8 -6 -25 15 -16 18 -33 28 -45 26 -14 -3 -23 7 -37 40 -14 34 -20 40
-25 27 -4 -9 -7 21 -6 68 0 47 3 88 5 92 2 4 3 99 2 210 -1 112 -2 233 -2 271
0 37 -4 67 -8 67 -6 0 -21 46 -23 72 -2 20 -14 15 -18 -7 -3 -14 -1 -25 6 -25
7 0 6 -3 -2 -8 -15 -10 -34 -70 -23 -76 8 -6 14 -76 6 -76 -13 0 -36 31 -38
50 -1 11 -7 22 -14 25 -14 5 -15 72 -2 81 9 5 -7 64 -21 78 -5 5 -10 20 -10
33 0 43 -19 23 -31 -34 -7 -32 -15 -60 -18 -63 -3 -3 -6 -25 -7 -50 0 -25 -3
-56 -7 -70 -3 -14 -6 -40 -6 -58 -1 -31 -2 -32 -23 -21 -13 6 -32 21 -43 33
l-20 21 -3 -33 c-3 -30 -6 -32 -41 -32 -44 0 -61 14 -61 53 0 16 -4 26 -10 22
-6 -3 -10 -17 -10 -31 0 -28 -1 -28 -35 -12 -14 6 -26 18 -26 27 -1 9 -3 32
-4 51 -1 19 -4 38 -5 43 -3 8 -3 7 -14 57 l-9 34 -17 -44 c-17 -45 -17 -60 0
-60 5 0 7 7 4 15 -4 8 -2 15 3 15 5 0 10 -11 11 -24 1 -19 -2 -23 -17 -19 -10
3 -22 0 -25 -6 -4 -6 -4 -11 1 -11 4 0 9 -15 10 -34 2 -27 -1 -34 -14 -32 -9
2 -19 8 -21 14 -2 7 -8 10 -13 6 -5 -3 -9 4 -9 15 0 11 -5 23 -10 26 -6 4 -10
34 -9 68 2 41 -3 75 -15 100 -9 21 -14 42 -11 47 4 6 2 10 -3 10 -13 0 -42
-125 -42 -177 0 -24 -4 -43 -9 -43 -5 0 -9 -43 -10 -96 -1 -63 2 -93 9 -89 5
3 10 -3 10 -14 0 -12 -4 -21 -10 -21 -5 0 -10 -5 -10 -11 0 -5 5 -7 11 -4 7 5
9 -11 5 -48 -4 -49 -2 -54 13 -50 11 3 21 -2 24 -11 5 -12 0 -16 -18 -16 -14
0 -25 -4 -25 -9 0 -4 11 -6 25 -3 20 3 25 0 25 -16 0 -16 -7 -21 -35 -24 -20
-2 -35 -7 -34 -13 0 -5 5 -9 9 -8 5 2 12 -6 15 -17 7 -23 16 -25 33 -8 9 9 12
9 12 0 0 -9 53 -12 212 -12 202 1 212 2 230 22 15 17 18 18 18 5 0 -10 7 -17
15 -17 8 0 15 5 15 10 0 6 5 10 11 10 5 0 8 -4 4 -9 -3 -5 -1 -12 4 -16 5 -3
14 3 20 12 9 16 10 16 11 -4 l0 -23 -305 0 c-226 0 -305 -3 -305 -12 0 -6 3
-9 6 -5 4 3 12 0 19 -7 7 -7 29 -12 49 -11 37 1 55 -18 36 -40 -13 -16 6 -34
31 -28 12 4 19 14 19 31 0 15 4 22 9 17 4 -6 5 -32 1 -60 -4 -27 -8 -44 -9
-37 0 6 -5 12 -11 12 -5 0 -7 -7 -4 -15 4 -8 1 -15 -5 -15 -6 0 -11 7 -11 16
0 9 -6 14 -12 11 -8 -2 -13 -25 -14 -62 -2 -69 4 -95 21 -95 14 0 28 -27 21
-39 -3 -4 6 -8 19 -9 16 -1 26 5 30 18 8 26 25 26 25 0 0 -18 7 -20 65 -20 50
0 66 4 74 17 10 17 10 17 11 1 0 -10 11 -20 25 -24 42 -10 55 1 55 50 0 30 5
46 15 50 8 3 15 12 15 21 0 8 -7 15 -15 15 -8 0 -15 5 -15 11 0 5 4 7 10 4 5
-3 10 -1 10 4 0 6 -5 11 -11 11 -6 0 -9 19 -7 48 2 31 7 46 16 44 7 -1 12 9
12 27 0 16 3 36 6 45 8 20 33 21 40 1 7 -17 34 -21 34 -5 0 6 11 10 25 10 22
0 25 -4 25 -35 0 -29 -4 -35 -22 -36 -14 -1 -17 -3 -8 -5 23 -7 25 -84 2 -84
-16 -1 -16 -2 1 -14 20 -15 24 -62 5 -50 -9 6 -9 3 0 -9 8 -9 15 -39 16 -67
l2 -50 -205 -1 c-113 -1 -219 -1 -236 -1 -16 1 -101 1 -187 2 -146 0 -190 9
-138 25 16 5 19 12 15 28 -5 16 -4 18 3 8 8 -11 10 -11 15 0 3 8 6 -2 6 -21 1
-24 4 -31 10 -21 7 11 9 11 14 0 3 -8 6 4 7 26 2 35 3 37 10 15 4 -14 8 -21 9
-17 1 5 8 1 17 -7 36 -37 44 -12 44 147 l0 118 -72 -3 -73 -3 -3 43 -3 42 -45
0 -44 0 0 -40 c0 -37 -2 -40 -30 -42 -16 -1 -45 -3 -62 -4 -53 -5 -98 5 -98
21 0 8 -4 15 -10 15 -5 0 -10 9 -10 20 0 11 -3 20 -7 20 -5 0 -8 110 -8 245 1
186 -3 256 -14 290 -7 25 -18 45 -24 45 -5 0 -7 -7 -3 -15 3 -8 1 -15 -3 -15
-15 0 -28 -53 -23 -93 3 -24 -1 -46 -12 -61 -14 -23 -14 -25 2 -29 15 -4 15
-5 0 -6 -9 0 -19 -9 -21 -18 -3 -10 -5 0 -6 22 -2 49 -16 78 -27 52 -10 -28
-19 -20 -21 21 -5 112 -16 167 -50 231 -1 1 -7 0 -13 -4 -8 -5 -7 -11 2 -23 8
-10 9 -13 1 -9 -19 12 -26 -12 -28 -85 0 -46 -5 -72 -14 -77 -8 -5 -10 -14 -7
-20 4 -6 12 -8 18 -5 7 4 8 2 4 -5 -4 -6 -11 -9 -16 -6 -5 3 -10 -5 -12 -17
-3 -26 -41 -37 -63 -18 -11 9 -14 6 -17 -12 -2 -18 -10 -23 -33 -24 -55 -2
-75 12 -76 53 -2 30 -3 32 -6 11 -8 -51 -20 -29 -18 32 2 33 -1 60 -6 60 -5 0
-9 7 -9 16 0 11 -5 14 -17 9 -15 -5 -16 -4 -6 6 15 15 17 29 5 29 -13 0 -34
-67 -38 -123 -3 -29 -8 -59 -11 -67 -9 -23 -10 -28 -12 -61 -2 -49 -21 -23
-21 29 0 45 -13 82 -24 71 -3 -3 -6 -33 -7 -66 -1 -42 -6 -64 -15 -67 -11 -4
-14 12 -14 79 0 51 -4 87 -11 91 -8 4 -9 27 -5 68 4 45 2 69 -9 90 -8 15 -15
37 -15 47 0 10 -5 21 -11 25 -7 4 -10 1 -7 -7 3 -8 -5 -18 -16 -24 -14 -7 -22
-22 -24 -45 -2 -26 0 -31 8 -20 8 13 10 13 10 0 0 -8 -12 -24 -26 -36 -19 -17
-27 -37 -34 -84 -5 -34 -15 -67 -23 -73 -11 -9 -16 -46 -21 -142 -4 -71 -7
-135 -8 -142 -1 -6 -12 -14 -25 -18 -13 -3 -23 -9 -23 -13 0 -12 43 -12 57 0
8 6 16 8 20 4 3 -3 2 -6 -3 -6 -5 0 -10 -9 -11 -19 -2 -19 -1 -19 17 -1 11 11
17 26 14 35 -4 8 -2 15 4 15 9 0 23 79 22 128 0 13 4 31 10 40 7 13 9 3 10
-36 0 -49 2 -53 20 -47 15 5 20 2 20 -10 0 -12 -5 -15 -16 -11 -9 3 -20 4 -24
1 -15 -9 1 -35 21 -35 16 0 19 -7 17 -45 l-1 -45 -40 0 c-32 0 -38 -3 -33 -16
3 -9 6 -19 6 -22 0 -4 5 0 10 8 8 13 10 12 10 -2 0 -13 8 -18 27 -18 14 0 24
-3 20 -6 -5 -5 -34 -9 -97 -13 -24 -1 -26 -4 -27 -61 -1 -52 1 -60 17 -60 19
0 30 26 30 78 0 22 5 32 15 32 8 0 15 -5 15 -11 0 -5 5 -7 10 -4 6 3 10 2 10
-4 0 -5 -5 -13 -11 -17 -8 -4 -7 -9 2 -15 9 -5 16 -2 21 9 4 10 7 -3 7 -30 1
-51 9 -58 36 -32 10 11 13 20 7 26 -12 12 -3 50 9 42 5 -3 10 -29 10 -57 1
-29 3 -44 6 -34 3 11 11 16 19 13 11 -4 14 4 14 34 0 22 4 40 10 40 11 0 7
-116 -4 -127 -3 -3 -6 2 -6 13 -1 17 -2 17 -13 3 -20 -26 -45 -30 -52 -9 -3
10 -12 21 -20 24 -11 4 -15 -3 -16 -27 -1 -18 -3 -24 -6 -15 -8 30 -33 21 -33
-11 0 -33 14 -48 27 -29 5 9 10 0 13 -24 4 -31 8 -36 20 -27 11 8 12 12 3 16
-19 7 -16 53 2 53 10 0 15 -10 15 -30 0 -16 -1 -32 -2 -33 -2 -2 2 -10 8 -18
7 -8 8 -22 3 -34 -7 -18 -8 -18 -8 -2 -1 10 -5 15 -11 12 -5 -3 -10 -1 -10 6
0 9 -4 9 -15 -1 -8 -6 -19 -9 -25 -5 -14 9 -13 35 2 35 9 0 9 3 1 11 -6 6 -16
8 -22 5 -14 -9 -15 -56 -1 -56 6 0 10 -8 10 -17 0 -15 2 -16 10 -3 8 13 10 12
10 -2 0 -11 -8 -18 -19 -18 -32 0 -50 -11 -44 -26 3 -8 9 -11 14 -8 5 3 9 -15
9 -40 0 -48 7 -54 40 -34 15 10 22 10 32 0 17 -17 8 -22 -53 -29 -30 -3 -48
-8 -41 -11 7 -2 12 -25 13 -60 0 -32 3 -51 6 -44 2 6 11 12 19 12 8 0 14 10
14 26 0 15 4 23 11 19 6 -4 8 -14 5 -22 -4 -9 -2 -21 3 -27 5 -6 11 -22 13
-36 2 -20 -2 -26 -19 -28 -17 -3 -23 -10 -23 -28 0 -15 -6 -24 -15 -24 -10 0
-15 -9 -14 -27 l1 -28 8 25 c4 14 8 21 9 17 2 -15 31 21 31 37 0 25 17 19 22
-8 3 -16 1 -23 -7 -19 -8 2 -12 -5 -12 -21 0 -14 3 -26 8 -26 4 0 7 -22 6 -50
-2 -48 -10 -63 -20 -37 -4 9 -6 9 -6 0 -1 -7 -12 -13 -26 -13 -26 0 -25 3 -29
-85 -1 -15 7 -21 34 -26 l35 -6 -33 -8 c-21 -5 -34 -15 -37 -29 -8 -42 -12
-286 -3 -286 4 0 8 27 8 60 0 33 4 60 9 60 6 0 10 -21 9 -48 0 -71 0 -72 25
-73 19 -1 18 -2 -6 -9 -16 -5 -35 -6 -42 -4 -8 3 -14 -6 -17 -25 -3 -23 -1
-31 11 -31 12 0 12 -3 3 -12 -7 -7 -12 -41 -12 -84 0 -60 3 -72 16 -70 8 1 20
9 25 17 8 11 9 10 7 -6 -2 -14 -13 -22 -35 -25 -21 -3 -30 -9 -25 -16 15 -23
168 -33 218 -14 13 5 24 6 24 1 0 -4 13 -8 30 -8 16 0 27 4 24 9 -3 4 9 8 25
8 17 0 31 -3 31 -7 0 -5 11 -9 25 -9 14 -1 25 2 25 7 0 5 19 9 42 9 39 0 40 1
22 14 -19 14 -19 15 1 22 19 8 18 8 -5 14 -17 4 -26 14 -28 30 -2 13 -10 33
-18 44 -20 29 -19 53 1 36 8 -7 16 -9 16 -4 1 5 2 16 3 24 0 8 12 17 26 18 14
2 29 8 34 13 6 5 17 9 25 9 14 0 14 -1 1 -10 -13 -8 -12 -10 3 -10 9 0 17 -4
17 -10 0 -5 -4 -10 -10 -10 -5 0 -10 -4 -10 -9 0 -5 9 -7 20 -4 11 3 20 9 20
14 0 20 20 7 35 -21 10 -19 13 -40 9 -53 -4 -12 -7 -34 -6 -49 1 -23 -4 -28
-23 -28 -17 0 -23 4 -19 14 3 8 1 17 -5 21 -7 4 -11 -4 -11 -19 0 -19 -5 -26
-20 -26 -40 0 -18 -18 30 -24 48 -6 64 -19 38 -29 -8 -3 -6 -6 5 -6 24 -1 22
-31 -2 -31 -15 0 -19 -6 -18 -27 2 -28 1 -28 -53 -25 -213 12 -420 12 -467 1
-48 -11 -54 -10 -85 11 -18 12 -25 19 -15 16 9 -3 17 -1 17 4 0 9 -14 14 -32
11 -5 0 -8 2 -8 6 0 5 -67 7 -150 5 l-150 -3 0 28 c0 19 3 24 9 14 5 -8 16
-11 30 -6 13 4 21 2 21 -6 0 -9 4 -8 15 1 8 7 15 8 15 3 0 -5 16 -10 35 -11
26 -2 35 1 35 13 0 8 5 15 10 15 6 0 10 -4 10 -10 0 -5 14 -10 30 -10 17 0 30
5 30 10 0 6 16 10 35 10 29 0 35 -4 36 -22 0 -13 3 -17 6 -10 2 6 17 13 31 13
17 1 20 3 10 6 -15 4 -17 13 -13 61 10 122 38 848 39 1042 1 62 -2 75 -15 74
-12 -1 -16 13 -18 73 -2 86 5 117 25 109 11 -4 14 7 14 54 0 53 -2 60 -20 60
-14 0 -20 -7 -20 -21 0 -11 -4 -17 -10 -14 -5 3 -10 26 -10 51 0 29 -4 43 -11
39 -5 -4 -8 -12 -6 -18 2 -7 0 -22 -4 -34 -5 -14 -4 -23 4 -27 8 -3 8 -5 1 -5
-6 -1 -9 -12 -6 -26 3 -19 0 -25 -14 -25 -18 -1 -18 -1 -1 -11 9 -5 17 -20 16
-32 -1 -20 -2 -20 -8 3 -7 22 -9 19 -16 -23 -4 -26 -11 -50 -16 -53 -5 -3 -9
-11 -9 -17 0 -7 7 -4 14 6 8 11 17 14 20 8 4 -5 2 -12 -4 -16 -7 -4 -5 -11 3
-20 10 -9 13 -32 10 -77 -5 -78 -8 -89 -28 -82 -8 3 -13 10 -10 14 9 15 16
150 8 150 -15 -1 -40 -25 -36 -36 4 -13 -25 -40 -34 -31 -3 4 6 41 20 82 14
41 22 75 18 75 -4 0 -16 -27 -26 -60 -10 -34 -24 -60 -32 -60 -17 0 -17 27 1
78 9 25 11 44 5 47 -5 4 -9 -1 -9 -11 0 -13 -3 -14 -15 -4 -25 21 -17 26 36
25 28 0 56 3 62 7 7 4 -39 8 -100 8 -68 0 -114 4 -114 10 -1 6 -2 16 -3 23 -1
6 -5 15 -9 18 -4 3 -9 16 -10 27 -1 12 -5 22 -9 22 -4 0 -7 3 -7 8 3 16 -1 65
-5 61 -6 -6 -17 -81 -16 -112 0 -17 -5 -27 -15 -27 -8 0 -12 -6 -9 -13 3 -9
-4 -12 -23 -11 -15 1 -41 2 -56 3 -18 1 -26 5 -21 12 5 8 1 8 -14 0 -22 -12
-52 -5 -52 11 0 6 7 8 15 4 9 -3 15 0 15 9 0 8 -8 15 -17 15 -10 0 -28 3 -41
6 -14 4 -22 2 -22 -6 0 -7 7 -10 15 -6 11 4 15 -2 15 -21 0 -21 -2 -24 -15
-13 -10 9 -15 9 -15 1 0 -35 -47 38 -54 84 -4 27 -16 28 -16 2 0 -15 -8 -45
-17 -67 l-18 -40 -77 0 c-77 0 -78 0 -78 25 0 14 -4 25 -10 25 -14 0 -13 151
1 170 9 13 10 12 5 -3 -3 -9 -1 -17 4 -17 6 0 10 9 10 20 0 11 -4 20 -9 20
-16 0 -17 34 -2 46 13 10 13 14 -2 28 -16 16 -18 16 -38 -2 -19 -19 -19 -21
-3 -30 19 -11 11 -34 -10 -26 -8 3 -12 -3 -11 -18 1 -15 8 -22 19 -22 14 2 16
-6 12 -50 -2 -28 -5 -63 -5 -78 -1 -18 -7 -28 -16 -28 -8 0 -15 -7 -15 -15 0
-8 7 -15 17 -15 19 0 9 -13 -12 -16 -8 -1 -15 3 -15 9 0 19 -34 97 -43 97 -4
0 -6 -3 -6 -8 7 -41 -26 -65 -50 -35 -13 17 -13 17 -8 1 4 -12 1 -18 -8 -18
-18 0 -20 -46 -2 -53 6 -3 3 -6 -9 -6 -17 -1 -20 4 -16 29 3 18 0 30 -7 30 -6
0 -11 -11 -11 -25 0 -14 -5 -25 -11 -25 -7 0 -9 10 -5 25 5 18 2 25 -9 25 -10
0 -15 -10 -15 -28 0 -25 -3 -28 -40 -29 -22 -1 -40 1 -40 5 0 12 34 37 49 37
8 0 16 5 18 12 3 7 -10 10 -39 9 -42 -3 -43 -4 -40 -34 1 -21 -2 -32 -11 -32
-8 0 -14 6 -14 14 0 8 -8 31 -18 52 -14 28 -20 34 -23 21 -4 -21 -26 -22 -82
-2 -48 17 -74 19 -65 6 3 -5 -14 -9 -39 -8 -24 1 -42 5 -39 9 2 5 -1 8 -6 8
-6 0 -11 -4 -11 -10 0 -12 -43 -14 -54 -3 -4 5 -13 8 -19 8 -8 0 -16 34 -22
90 -10 81 -11 86 -18 50 -4 -22 -7 -57 -7 -78 0 -65 -10 -74 -84 -73 -45 1
-66 -3 -66 -11 0 -7 20 -13 52 -15 53 -3 65 -12 48 -38 -8 -13 -11 -12 -24 5
-15 20 -15 20 -16 -1 0 -15 -6 -20 -27 -20 -18 1 -29 -5 -31 -15 -2 -13 6 -15
47 -13 44 3 49 2 44 -15 -4 -15 0 -18 22 -14 24 5 25 4 14 -20 -7 -15 -15 -24
-20 -22 -4 3 -11 0 -15 -6 -5 -8 -3 -9 6 -4 10 6 12 4 7 -8 -14 -37 10 -14 28
26 15 33 20 38 23 22 2 -11 9 -23 16 -27 8 -6 7 -11 -3 -17 -11 -7 -12 -13 -4
-23 6 -8 9 -40 7 -80 -4 -57 -2 -67 13 -71 10 -3 -1 -5 -24 -6 -44 -1 -56 12
-29 33 8 6 17 36 20 66 l5 55 -21 -25 c-11 -15 -18 -18 -15 -8 6 16 -15 32
-27 21 -10 -10 -7 -25 4 -18 6 3 10 -3 10 -14 0 -12 -4 -21 -10 -21 -5 0 -10
4 -10 9 0 5 -7 16 -15 25 -14 14 -14 19 0 52 8 21 13 45 10 55 -7 23 -42 31
-49 12 -4 -8 -12 -13 -19 -10 -11 4 -14 -53 -15 -294 l-2 -299 25 2 c20 2 25
8 25 31 0 15 7 39 16 52 17 26 12 61 -7 49 -8 -4 -9 1 -4 17 4 13 14 47 22 74
8 28 17 55 19 60 2 6 2 -39 -1 -99 -3 -60 -5 -127 -5 -149 0 -31 -3 -38 -15
-33 -8 3 -15 1 -15 -4 0 -6 -13 -10 -29 -10 -27 0 -28 -2 -30 -52 0 -32 4 -55
12 -60 9 -6 9 -8 -1 -8 -10 0 -12 -41 -12 -183 l1 -183 31 4 c19 3 33 -1 39
-9 13 -21 11 -41 -4 -33 -7 5 -6 1 3 -10 16 -20 16 -20 25 46 4 32 11 48 21
48 8 0 14 -4 14 -9 0 -5 8 -12 18 -14 13 -4 11 -5 -5 -6 -13 0 -23 -7 -23 -15
0 -9 7 -12 20 -9 19 5 20 0 20 -63 0 -92 -7 -101 -52 -71 -31 22 -36 23 -46 8
-10 -14 -11 -14 -11 2 -1 10 5 20 13 23 23 9 -14 41 -41 36 -23 -4 -23 -7 -23
-158 l0 -154 28 0 c21 0 24 -2 12 -10 -9 -6 -10 -10 -3 -10 6 0 15 4 18 10 6
10 85 10 85 0 0 -5 34 -5 323 3 92 3 155 1 151 -4 -8 -13 10 -11 25 4 11 10
12 9 6 -2 -6 -10 -4 -12 6 -5 18 11 160 14 153 2 -3 -4 1 -8 10 -8 8 0 16 5
18 11 3 8 22 8 65 2 34 -5 60 -6 58 -2 -3 4 2 10 10 13 9 3 18 -1 21 -9 4 -8
11 -12 17 -8 6 4 43 7 82 8 38 1 85 5 104 10 21 4 31 4 27 -3 -8 -13 46 -23
60 -11 6 5 30 5 56 0 26 -4 53 -4 61 1 9 5 45 6 81 4 45 -3 66 -1 70 7 2 7 5
8 5 2 1 -9 164 -10 219 -1 12 2 20 1 18 -2 -3 -3 2 -10 11 -17 17 -13 56 -9
48 5 -8 13 37 20 57 9 10 -5 22 -8 27 -5 5 3 14 -1 21 -9 7 -9 23 -13 39 -10
14 2 54 7 89 10 35 2 69 7 75 11 7 3 4 -1 -5 -9 -24 -19 -23 -24 9 -30 16 -3
40 3 60 14 19 11 32 15 29 10 -9 -13 20 -33 41 -28 14 4 13 5 -4 6 -13 0 -23
6 -23 12 0 6 9 8 21 4 15 -5 19 -4 15 4 -10 15 29 14 57 -1 12 -6 42 -13 66
-13 39 -2 42 -1 26 11 -24 18 -13 29 14 14 12 -6 26 -8 31 -5 6 3 10 -1 10
-10 0 -11 -5 -15 -15 -11 -8 3 -15 2 -15 -3 0 -14 69 -23 88 -11 15 10 14 10
-5 5 -12 -3 -24 -1 -28 5 -4 6 8 10 32 10 28 0 34 3 23 10 -11 7 -5 9 22 8 21
-1 35 -5 32 -9 -2 -4 0 -10 6 -14 5 -3 10 1 10 9 0 12 17 15 91 14 52 -1 85
-4 77 -9 -9 -6 -3 -9 17 -9 20 0 26 3 17 9 -11 7 -11 9 2 14 8 3 18 2 21 -3 3
-5 20 -7 38 -6 17 2 23 1 13 -1 -14 -4 -16 -7 -6 -13 7 -4 38 -1 69 8 93 25
235 13 215 -19 -3 -5 21 -8 53 -8 32 1 48 4 36 6 -42 8 -23 20 42 27 42 4 81
2 108 -6 l42 -12 -34 -4 c-19 -2 -37 2 -41 8 -4 7 -17 10 -28 8 -15 -2 -19 -7
-14 -16 13 -19 147 -18 167 2 9 8 16 18 15 21 -1 16 1 16 15 5 9 -7 15 -8 15
-2 0 5 15 10 34 10 19 0 39 3 45 6 6 4 27 4 47 0 25 -5 32 -9 22 -15 -9 -6 -4
-9 15 -9 16 0 26 4 22 10 -3 5 0 11 7 11 50 5 75 3 70 -5 -3 -5 2 -6 12 -3 10
4 29 7 42 7 17 0 24 6 24 18 0 10 7 19 15 19 8 0 15 -6 15 -14 0 -11 35 -12
191 -8 120 3 188 2 185 -4 -4 -5 -2 -12 4 -16 5 -3 10 0 10 8 0 8 10 17 21 20
18 5 21 11 15 38 -6 31 -6 32 13 15 11 -10 21 -30 23 -45 2 -20 8 -25 23 -22
40 7 150 7 155 0 3 -4 27 -3 54 2 37 7 52 6 57 -3 10 -15 96 -13 115 3 9 7 19
7 36 -3 16 -10 42 -12 88 -7 36 3 59 6 51 7 -8 1 -11 5 -8 8 4 4 13 1 22 -6
19 -16 130 -7 153 13 12 9 14 9 9 0 -6 -10 36 -12 183 -13 204 0 220 -3 220
-51 0 -18 2 -19 15 -9 9 7 18 10 22 6 3 -3 1 -6 -6 -6 -7 0 -11 -6 -8 -14 3
-8 1 -16 -5 -18 -17 -6 0 -28 21 -28 10 0 31 -7 47 -15 21 -10 24 -16 13 -20
-10 -4 -15 -20 -15 -53 0 -48 10 -68 36 -70 73 -6 220 -6 220 0 0 4 5 8 11 8
8 0 8 -4 0 -14 -9 -10 -7 -19 8 -37 17 -21 28 -24 90 -25 39 -1 75 -4 79 -8 4
-4 -62 -6 -145 -4 -174 3 -159 13 -162 -104 -3 -95 7 -103 112 -95 110 9 222
-21 137 -36 -14 -2 151 -5 365 -6 l390 -1 -3 329 c-3 317 -2 331 17 350 20 20
67 19 55 -1 -4 -5 -15 -8 -25 -5 -27 7 -26 -39 2 -53 22 -12 54 4 43 21 -3 5
2 6 10 3 10 -4 17 2 22 20 5 23 11 26 48 25 22 0 35 -3 29 -6 -7 -2 -13 -11
-13 -19 0 -17 31 -19 47 -3 8 8 17 5 32 -10 12 -12 29 -21 40 -21 25 0 31 -35
31 -169 0 -140 11 -301 21 -301 4 0 5 17 2 39 -4 30 -2 39 12 45 9 3 22 3 28
-1 9 -5 9 -3 1 8 -13 18 -16 59 -3 59 5 0 9 6 9 14 0 8 5 18 11 22 8 4 9 -1 4
-17 -16 -50 -16 -53 -1 -29 12 19 15 21 16 8 0 -12 6 -16 18 -12 9 2 7 -1 -5
-7 -21 -11 -22 -13 -5 -26 16 -12 16 -13 -2 -6 -15 5 -18 3 -13 -10 5 -13 1
-17 -18 -17 -22 0 -23 -2 -14 -30 6 -16 15 -28 20 -25 4 3 6 12 3 19 -6 16 42
50 51 36 3 -6 3 -14 0 -20 -3 -5 -2 -10 2 -10 5 0 8 -36 8 -80 0 -44 -3 -80
-6 -80 -4 0 -9 -9 -12 -20 -6 -22 8 -28 16 -7 4 9 6 9 6 0 1 -10 28 -13 99
-13 l97 0 -2 282 c-2 156 -7 362 -13 458 -5 96 -12 294 -16 440 -3 146 -7 297
-9 335 -4 64 -6 380 -5 647 l0 108 193 126 c225 149 401 262 547 352 58 35
135 84 171 108 37 23 131 80 210 124 79 45 185 106 234 135 114 67 246 142
460 262 94 53 238 134 320 181 261 148 423 240 683 385 l252 140 0 94 c0 83
-8 111 -24 85 -3 -5 -74 -50 -158 -101 -242 -146 -425 -258 -643 -394 -49 -31
-121 -75 -160 -98 -38 -23 -100 -61 -136 -84 -36 -24 -81 -51 -100 -62 -19
-10 -59 -34 -89 -54 -30 -19 -62 -38 -70 -42 -8 -4 -34 -20 -57 -35 -107 -68
-271 -172 -299 -189 -63 -37 -161 -98 -269 -168 -60 -39 -162 -105 -225 -145
-63 -41 -117 -77 -120 -81 -3 -3 -41 -27 -85 -54 -44 -27 -82 -52 -85 -56 -5
-6 -160 -106 -432 -281 -59 -37 -111 -68 -116 -68 -5 0 -15 -7 -22 -15 -14
-17 -26 -12 -40 18 -10 20 -10 20 3 5 17 -22 41 -24 33 -3 -17 43 -17 49 -1
27 12 -17 20 -21 28 -13 8 8 8 14 -1 23 -7 7 -12 17 -12 22 0 6 5 3 11 -6 14
-25 43 -24 36 2 -4 17 -2 18 14 9 15 -7 21 -6 25 6 3 8 10 12 15 9 15 -9 22
25 9 41 -7 9 -10 18 -7 21 3 3 10 -4 17 -15 12 -24 46 -30 36 -6 -18 44 -18
50 1 28 12 -16 22 -20 32 -14 12 8 12 13 -2 35 -14 21 -15 24 -2 20 8 -4 18
-17 21 -30 6 -23 7 -23 19 -7 11 15 11 23 -1 48 l-15 30 20 -24 c13 -14 27
-21 36 -17 14 5 14 8 -1 31 -22 34 -12 43 13 11 26 -32 48 -21 33 18 -7 19 -7
25 1 21 6 -4 13 -15 17 -25 6 -16 9 -17 26 -4 18 13 18 15 3 32 -9 10 -17 25
-17 33 1 8 8 1 16 -14 19 -36 49 -33 49 5 -1 25 0 26 17 11 14 -13 20 -13 33
-3 13 11 13 15 2 29 -15 18 -29 51 -21 51 2 0 9 -12 14 -26 6 -14 14 -23 19
-20 5 4 11 2 13 -4 2 -6 9 -6 18 0 13 8 12 13 -4 40 -10 17 -15 34 -12 37 3 3
15 -14 26 -38 11 -24 20 -37 20 -28 0 9 7 20 16 23 11 4 14 12 9 24 -4 9 -8
26 -10 37 -4 16 0 15 16 -7 17 -23 24 -26 40 -18 18 10 18 11 -1 45 -23 41
-18 44 16 10 29 -29 58 -24 48 9 -3 11 -10 25 -15 31 -5 5 -9 16 -9 24 0 9 6
7 20 -9 11 -13 20 -27 20 -32 0 -14 27 -9 40 7 10 13 10 19 -4 33 -15 18 -24
63 -8 48 4 -4 7 -12 7 -17 0 -5 5 -9 10 -9 6 0 15 -15 22 -33 6 -17 12 -24 12
-15 1 9 8 21 17 26 15 8 15 12 0 40 -9 17 -12 33 -7 36 5 3 16 -10 25 -29 9
-19 19 -35 22 -35 3 0 3 4 -1 9 -3 5 4 12 15 16 24 8 25 23 4 54 -13 18 -14
25 -4 34 9 8 11 8 7 1 -4 -6 2 -19 13 -29 11 -10 17 -22 14 -27 -4 -5 8 -2 25
7 34 17 39 46 14 73 -7 7 -13 21 -13 30 1 14 3 14 12 -3 12 -20 48 -54 58 -54
3 0 13 6 23 13 17 13 17 16 -8 51 -26 39 -27 57 -1 36 8 -7 12 -19 9 -27 -5
-13 8 -19 30 -15 5 1 6 -2 3 -7 -2 -4 -1 -14 5 -22 7 -13 9 -12 9 1 0 9 10 23
21 31 21 13 21 15 5 47 -10 18 -15 36 -11 39 10 11 46 -41 41 -60 -6 -24 -2
-23 32 11 l29 30 -19 29 c-17 28 -17 30 -1 43 15 12 16 12 10 -3 -3 -10 -2
-18 4 -18 6 0 8 -4 5 -9 -3 -5 4 -11 15 -14 18 -5 19 -8 8 -29 -7 -14 3 -7 25
17 32 33 36 43 27 61 -10 22 -6 34 12 34 5 0 7 -7 3 -15 -3 -9 0 -15 10 -15
11 0 15 -6 11 -20 -3 -11 -1 -20 4 -20 5 0 9 7 9 15 0 8 11 22 25 31 20 13 23
20 14 30 -6 8 -9 21 -5 29 3 9 2 13 -4 10 -5 -3 -14 3 -20 14 -7 14 -7 22 2
27 6 4 8 3 4 -4 -3 -6 3 -13 13 -17 11 -3 23 -15 26 -26 7 -22 23 -24 59 -8
32 15 40 46 15 59 -10 6 -19 16 -19 23 0 9 2 9 8 -1 5 -7 16 -10 24 -7 18 7
34 -37 21 -58 -4 -7 10 6 32 28 21 22 39 50 39 62 1 12 -1 20 -4 18 -3 -2 -11
5 -18 15 -9 14 -8 19 3 24 17 6 46 -31 38 -50 -2 -7 0 -21 5 -31 10 -17 11
-17 18 2 3 11 20 32 37 46 l30 26 -28 47 c-15 26 -25 49 -22 52 3 3 11 -4 17
-16 15 -29 25 -18 10 12 -11 22 -11 22 5 3 9 -11 14 -28 11 -38 -2 -9 5 -27
16 -40 l19 -22 -17 28 c-18 30 -9 38 12 10 12 -17 14 -17 48 1 39 21 46 47 21
80 -8 11 -15 31 -15 45 0 21 2 23 10 11 5 -8 10 -25 10 -36 0 -12 7 -27 15
-34 13 -11 14 -10 8 5 -6 18 -5 18 17 2 18 -12 28 -14 44 -5 24 12 71 60 79
80 3 7 6 3 6 -10 l1 -23 38 27 c20 16 41 31 45 35 5 4 4 16 -2 27 -8 15 -8 22
2 25 7 4 6 6 -4 6 -9 1 -20 8 -23 17 -8 21 -8 21 10 28 12 5 15 2 10 -9 -3 -9
-2 -14 3 -11 5 3 18 -9 30 -27 19 -30 19 -33 4 -44 -19 -15 -6 -17 16 -4 7 5
10 14 7 20 -4 6 -4 11 1 9 16 -4 84 45 79 57 -2 7 1 18 7 24 8 8 8 11 0 11
-14 0 -43 28 -43 41 0 5 5 9 11 9 5 0 7 -4 4 -10 -8 -13 1 -13 26 0 14 8 19 7
19 -3 0 -8 9 -22 19 -31 19 -17 22 -17 66 14 43 30 45 33 30 50 -15 16 -14 18
5 23 14 4 20 0 20 -11 0 -15 2 -15 11 -2 8 11 12 12 15 3 4 -8 22 0 54 23 27
20 54 33 60 29 5 -3 10 -2 10 3 0 6 -7 12 -15 16 -8 3 -15 10 -15 16 0 6 -11
26 -25 44 -30 39 -31 52 -6 65 16 9 20 6 25 -15 5 -18 11 -24 23 -20 12 5 14
1 10 -14 -3 -13 -1 -18 6 -13 7 4 8 0 4 -12 -6 -14 -3 -17 17 -13 17 4 23 1
19 -9 -3 -7 -9 -13 -13 -13 -4 0 -10 -7 -14 -15 -4 -13 -2 -14 14 -5 11 6 20
15 20 20 0 5 22 24 49 42 49 33 49 34 36 65 -7 17 -18 34 -24 37 -17 11 -13
63 5 70 17 7 43 -18 44 -41 0 -7 8 -13 17 -13 9 0 14 -3 11 -6 -4 -3 0 -17 7
-31 8 -15 12 -30 9 -35 -3 -4 0 -8 5 -8 6 0 11 9 11 19 0 20 96 89 115 83 5
-2 4 2 -2 9 -21 21 -16 49 8 49 18 0 19 2 9 15 -20 24 -8 26 20 4 14 -11 19
-18 12 -17 -8 2 -18 -7 -23 -19 -6 -18 -5 -23 6 -23 8 0 15 8 16 18 1 11 4 9
9 -8 8 -24 8 -25 9 -2 1 17 17 33 61 60 62 38 70 51 45 72 -10 8 -13 21 -8 38
5 21 3 24 -12 18 -21 -8 -35 8 -35 39 0 18 3 17 25 -8 33 -35 39 -34 20 2 -9
18 -11 32 -5 36 14 9 33 -34 27 -63 -3 -17 2 -37 15 -55 16 -22 17 -31 8 -42
-9 -11 -9 -15 -1 -15 6 0 11 4 11 10 0 5 7 7 15 4 19 -8 20 12 1 23 -12 8 -36
45 -36 57 0 18 19 2 24 -20 6 -21 11 -24 29 -18 12 4 37 18 55 32 l32 25 -1
123 c-1 68 -4 124 -7 124 -3 0 -13 -6 -21 -14 -9 -8 -151 -104 -316 -214 -165
-110 -419 -282 -565 -382 -146 -101 -382 -262 -525 -360 -143 -97 -287 -195
-320 -218 -33 -24 -166 -116 -295 -205 -129 -90 -302 -212 -385 -272 -82 -60
-208 -150 -280 -201 -71 -51 -172 -124 -224 -161 -154 -111 -231 -163 -230
-155 1 13 222 184 424 327 77 55 142 102 145 105 9 10 352 261 455 334 28 19
75 52 105 74 30 21 105 73 167 115 61 42 145 100 185 130 69 50 258 180 296
202 9 6 19 13 22 16 3 3 21 17 41 30 57 37 152 104 295 206 72 51 136 93 141
93 5 0 18 9 28 20 9 10 47 38 84 62 36 23 68 45 71 48 3 3 25 18 50 35 25 16
77 52 116 80 38 27 78 55 87 60 9 6 69 46 134 90 65 44 123 82 129 85 6 3 31
20 55 38 24 18 65 48 92 68 41 30 47 40 47 70 l0 35 -32 -22 c-18 -13 -73 -53
-123 -89 -49 -37 -193 -138 -320 -225 -126 -87 -354 -247 -505 -355 -151 -108
-354 -252 -450 -320 -334 -236 -827 -590 -875 -627 -16 -13 -34 -27 -40 -31
-5 -4 -107 -79 -225 -167 -506 -378 -613 -457 -629 -462 -9 -3 1 11 22 30 l37
36 1 135 c2 155 1 152 12 162 4 4 7 -25 7 -65 0 -99 20 -83 21 17 1 42 4 67 6
55 7 -36 23 -27 23 12 0 39 -5 42 -32 18 -10 -9 -18 -12 -18 -6 0 12 285 286
565 543 33 30 87 80 120 111 33 31 87 80 120 109 33 30 83 75 110 100 28 26
70 65 95 86 24 21 101 91 170 154 69 63 143 131 164 150 22 19 49 44 61 55 48
43 163 144 216 191 31 27 101 90 156 139 126 114 234 210 264 236 54 45 88 75
158 138 40 36 87 77 104 91 16 14 57 51 91 83 34 32 73 66 89 75 15 9 27 20
27 24 0 4 7 8 15 8 8 0 15 7 15 15 0 8 10 20 23 26 12 7 43 30 68 53 26 23 57
50 70 61 13 11 49 43 80 70 77 69 103 90 109 88 3 -1 13 12 22 28 l17 29 -50
0 -50 0 -211 -187 c-116 -104 -288 -258 -382 -343 -94 -86 -212 -192 -262
-235 -109 -97 -492 -448 -697 -640 -83 -77 -249 -232 -371 -344 -122 -112
-264 -245 -316 -295 -290 -278 -480 -457 -536 -506 -63 -55 153 157 351 345
98 94 229 218 289 276 61 58 181 170 266 249 85 79 200 187 255 239 56 53 141
132 190 176 50 44 158 143 240 220 83 77 191 176 240 220 50 44 142 127 205
185 135 124 336 303 470 420 52 46 128 114 168 151 l72 69 -32 0 c-27 -1 -49
-16 -123 -86z m-4890 -1791 c-3 -70 -9 -129 -13 -132 -13 -10 -47 -66 -44 -74
1 -5 -2 -6 -8 -2 -6 4 -22 -1 -36 -9 -28 -19 -71 -16 -85 5 -6 10 -9 10 -9 2
0 -7 -7 -13 -15 -13 -8 0 -15 -4 -15 -9 0 -5 -9 -7 -21 -4 -16 4 -17 8 -7 14
11 7 11 9 -1 9 -8 0 -11 6 -7 18 5 14 3 14 -9 -3 -15 -19 -16 -19 -33 0 -16
18 -16 18 3 5 16 -11 15 -9 -4 12 -23 26 -22 48 3 48 15 0 42 28 34 35 -3 3
-17 -4 -32 -16 -30 -24 -41 -19 -51 24 -6 24 -5 27 19 27 14 0 26 5 26 10 0 6
-11 8 -26 4 -25 -7 -27 -5 -20 22 4 16 11 33 15 37 9 9 61 -12 61 -25 0 -5 5
-6 11 -2 8 4 -2 14 -25 26 -32 16 -35 21 -26 39 16 30 41 35 57 13 13 -18 14
-17 8 8 -5 21 -3 27 15 33 12 4 24 4 27 2 3 -3 6 -49 7 -101 1 -66 5 -97 14
-101 8 -3 12 5 12 23 0 16 8 37 18 48 9 10 18 28 20 38 3 17 2 18 -12 3 -9 -8
-16 -20 -16 -26 0 -6 -5 -11 -11 -11 -8 0 -9 17 -5 53 3 28 6 58 6 65 0 14 38
16 59 3 12 -8 12 -12 2 -25 -8 -9 -10 -16 -6 -16 4 0 13 7 19 16 10 13 15 12
36 -11 23 -24 24 -28 8 -38 -48 -34 -50 -36 -15 -18 27 15 39 17 42 8 12 -39
13 -41 14 -22 1 11 -8 35 -19 53 -16 26 -17 32 -5 32 8 0 14 -3 14 -7 -3 -19
2 -33 11 -33 7 0 8 13 4 34 -5 32 0 56 12 56 3 0 3 -57 -1 -127z m121 -529 c0
-19 -3 -34 -8 -34 -4 0 -3 -11 2 -25 7 -18 6 -35 -4 -58 -12 -27 -14 -29 -15
-9 -1 12 -7 22 -16 22 -11 0 -14 -18 -14 -90 1 -51 5 -90 11 -90 5 0 6 5 3 10
-3 6 1 10 10 10 11 0 14 -7 11 -26 -5 -28 -16 -45 -16 -26 0 21 -18 13 -22 -9
-2 -18 -11 -22 -48 -25 l-45 -4 3 60 c3 43 8 60 18 60 19 0 18 26 -1 34 -8 3
-15 12 -15 21 0 8 -4 15 -9 15 -5 0 -8 -42 -7 -92 l1 -93 -155 -3 c-155 -2
-196 2 -172 17 7 4 13 38 15 86 4 113 24 109 23 -5 -1 -49 1 -90 4 -90 23 1
28 28 33 168 3 85 8 156 11 159 3 4 7 -57 7 -135 1 -78 3 -146 4 -152 1 -5 3
-14 4 -20 0 -5 8 -10 16 -10 12 0 15 21 17 123 0 67 1 130 0 140 -1 9 3 17 8
17 6 0 10 -51 10 -130 0 -109 2 -130 15 -130 18 0 20 17 3 22 -8 3 -6 14 8 36
15 27 16 36 6 52 -7 12 -8 20 -2 20 6 0 5 10 -2 26 -10 21 -9 27 3 35 10 6 10
9 1 9 -10 0 -10 4 0 20 20 32 28 3 30 -123 2 -64 6 -119 11 -123 17 -18 27 17
29 100 0 48 5 89 10 92 9 6 10 -7 8 -86 -1 -60 14 -115 30 -105 6 4 10 59 10
133 0 84 4 122 10 112 5 -8 7 -25 3 -37 -3 -14 -1 -23 6 -23 6 0 11 14 11 31
0 16 4 28 9 25 5 -3 11 1 15 9 3 8 0 15 -6 15 -6 0 -2 8 10 18 12 11 23 34 25
56 5 46 19 57 61 44 28 -9 32 -15 32 -44z m-1594 -403 c-7 -41 -7 -51 4 -52
30 -3 34 -4 34 -11 0 -5 0 -17 0 -28 0 -11 -7 -20 -16 -20 -8 0 -12 -5 -9 -10
4 -6 11 -8 16 -5 5 4 9 -18 9 -49 l0 -55 -123 0 -123 0 0 54 c1 34 4 48 9 39
5 -9 6 -26 3 -39 -10 -38 13 -40 29 -3 11 26 15 29 16 13 1 -11 2 -28 1 -37
-1 -11 5 -16 18 -15 17 1 20 9 20 49 0 26 4 48 10 48 5 0 7 -13 5 -28 -4 -36
26 -60 46 -36 15 19 29 101 29 167 -1 28 3 47 10 47 6 0 10 8 9 18 -2 29 3 49
8 25 2 -12 0 -44 -5 -72z m-1254 -67 c-4 -32 4 -45 16 -25 6 8 66 -14 66 -25
0 -2 -21 -2 -47 1 -33 3 -40 2 -23 -3 23 -8 25 -13 23 -58 -1 -27 1 -43 4 -36
7 18 32 15 29 -4 -2 -13 -14 -16 -57 -16 -105 0 -109 1 -109 21 0 14 6 17 24
14 17 -4 26 0 30 14 8 29 18 105 17 137 -1 16 4 33 11 37 16 10 21 -10 16 -57z
m2755 4 c4 -10 8 -9 16 2 5 8 13 12 16 8 6 -5 9 -110 5 -133 -1 -6 -2 -29 -1
-53 1 -59 26 -51 27 9 2 73 4 83 11 75 4 -4 8 -21 10 -39 2 -41 -8 -126 -14
-109 -6 17 -30 15 -36 -2 -7 -18 1 -68 12 -79 13 -13 24 12 12 27 -6 7 -8 16
-4 19 13 14 23 6 23 -16 0 -13 5 -28 11 -34 9 -9 -53 -12 -247 -11 -142 0
-249 2 -236 5 24 5 30 31 11 50 -6 6 -8 16 -5 22 14 23 26 10 26 -29 0 -43 0
-43 24 -34 14 5 16 28 16 145 0 93 4 139 11 139 7 0 10 -46 7 -145 -3 -143 0
-156 29 -137 10 7 15 104 14 294 0 10 5 20 11 24 6 4 9 -12 7 -47 -4 -53 3
-79 21 -79 5 0 12 29 15 65 8 76 25 87 26 18 0 -27 2 -75 3 -108 2 -33 1 -64
-2 -70 -9 -15 -10 -45 0 -39 10 7 10 1 -2 -30 -10 -28 -1 -40 25 -30 15 6 16
18 12 93 -7 102 2 231 16 231 5 0 7 -23 4 -55 -3 -32 -1 -53 4 -49 5 3 9 -16
9 -43 0 -35 -3 -44 -10 -33 -8 13 -10 13 -10 -2 0 -9 6 -18 13 -21 9 -3 9 -11
0 -35 -6 -19 -7 -34 -2 -38 5 -3 9 -14 9 -25 0 -10 5 -19 10 -19 6 0 10 6 10
13 0 97 9 299 14 304 5 6 10 -30 9 -79 0 -10 8 -18 17 -18 18 0 30 36 30 86 0
25 15 33 23 12z m-2763 -268 c0 -5 7 -10 15 -10 8 0 15 4 15 8 0 4 9 8 19 8
27 0 36 -37 10 -43 -10 -3 -19 -14 -19 -24 0 -12 5 -16 15 -13 11 5 15 -1 15
-25 0 -25 -4 -31 -21 -31 -15 0 -20 -5 -17 -22 2 -15 9 -22 21 -22 11 1 17 -5
17 -21 0 -18 -4 -22 -20 -18 -16 4 -20 0 -20 -17 0 -18 4 -21 21 -17 17 5 20
1 17 -21 -2 -14 -9 -28 -17 -30 -9 -3 -11 0 -6 8 5 9 4 11 -3 6 -7 -4 -12 -16
-12 -28 0 -17 2 -18 15 -8 12 10 15 10 15 -3 0 -18 -64 -25 -155 -16 -33 3
-46 6 -28 7 17 1 35 7 38 13 4 6 13 8 20 6 16 -7 13 125 -4 168 -10 25 -10 31
3 41 14 10 21 37 25 97 1 18 41 25 41 7z m4443 -44 c3 -7 -3 -26 -14 -42 -10
-16 -19 -25 -19 -20 0 6 -9 1 -19 -10 -10 -10 -38 -35 -62 -54 -23 -19 -56
-48 -73 -63 -17 -15 -52 -44 -78 -65 -26 -20 -47 -43 -48 -50 0 -9 10 -5 28
10 15 12 36 30 45 38 10 8 26 23 35 33 9 9 21 17 27 17 6 0 18 8 26 18 9 9 35
33 59 52 23 19 53 45 66 58 13 12 27 22 31 21 4 -1 10 0 13 1 7 4 44 7 156 16
l101 7 6 -134 c9 -181 20 -686 21 -944 l1 -209 -25 -7 c-24 -7 -24 -7 -2 -8
12 -1 22 -5 22 -11 0 -13 -67 -30 -123 -30 -41 0 -48 3 -45 17 2 14 17 19 63
24 49 5 42 6 -40 6 -55 0 -90 -2 -77 -4 36 -7 24 -37 -18 -43 -19 -4 -41 -4
-47 -2 -19 6 -16 32 4 39 15 6 15 35 9 337 -3 181 -8 331 -10 333 -2 2 -28 -6
-59 -17 -77 -29 -129 -85 -182 -194 -40 -82 -94 -243 -96 -285 0 -9 -3 -11 -5
-4 -9 21 46 205 86 288 54 113 99 168 164 200 29 14 63 27 75 28 29 2 27 17
-2 17 -46 0 -141 -57 -178 -107 -41 -54 -92 -152 -103 -197 -6 -24 -9 -27 -17
-15 -8 10 -9 9 -4 -8 8 -27 -14 -105 -28 -96 -5 3 -7 -3 -3 -14 4 -11 1 -33
-5 -49 -7 -16 -14 -40 -15 -54 -2 -14 -12 -86 -23 -160 -14 -93 -22 -207 -25
-365 -5 -226 -4 -227 4 -61 5 92 12 171 16 175 4 3 4 -30 0 -73 -3 -43 -6
-155 -6 -248 l0 -168 -29 0 c-17 0 -31 6 -35 16 -3 8 -10 13 -15 9 -5 -3 -12
4 -16 15 -4 12 -11 18 -18 14 -8 -5 -8 -2 1 7 6 7 12 23 12 35 0 13 4 25 9 28
12 8 34 -20 27 -33 -4 -5 -1 -13 5 -17 9 -5 10 2 6 25 -4 18 -10 295 -13 616
l-7 583 49 25 c27 14 58 32 69 41 11 9 -7 2 -40 -14 -33 -16 -63 -30 -67 -30
-5 0 -8 20 -8 44 0 44 0 44 78 94 42 27 145 91 227 141 169 104 178 111 170
134 -6 13 -19 8 -80 -31 -177 -113 -359 -227 -367 -230 -4 -2 -8 3 -8 12 0 9
5 16 11 16 5 0 8 4 4 9 -3 6 10 13 29 16 24 5 33 11 29 21 -4 10 0 12 11 8 9
-3 16 -1 16 5 0 6 9 11 21 11 13 0 18 4 13 12 -5 8 -2 9 9 5 11 -4 17 -1 17 7
0 8 8 13 18 12 9 0 16 5 14 12 -1 6 7 12 18 12 12 0 20 7 20 18 0 14 2 15 10
2 9 -13 11 -13 19 -1 5 8 8 19 7 25 -2 6 -1 8 1 4 9 -15 35 -8 29 7 -3 8 -2
14 2 14 26 -4 44 3 39 15 -4 11 0 13 15 11 23 -5 51 12 43 26 -3 4 2 6 12 5
24 -5 38 12 42 53 l3 34 -64 -45 c-34 -25 -108 -75 -163 -113 -55 -37 -140
-98 -190 -135 -49 -36 -95 -69 -102 -73 -11 -7 -13 10 -1 28 3 6 6 44 7 85 l1
75 108 105 c59 58 161 154 227 213 116 104 156 126 168 93z m-1667 -152 c13 4
24 2 24 -3 0 -5 8 -7 18 -5 14 4 19 -4 28 -40 7 -31 7 -44 0 -43 -6 1 -10 -9
-9 -23 1 -14 0 -19 -3 -12 -3 6 -10 10 -15 6 -5 -3 -9 6 -9 20 0 14 5 26 10
26 6 0 10 7 10 16 0 13 -2 13 -13 2 -19 -19 -29 -75 -14 -82 8 -3 9 -7 2 -13
-5 -4 -11 -26 -11 -48 -1 -22 0 -34 3 -28 9 23 36 -16 37 -53 1 -19 8 -39 16
-44 10 -6 -78 -9 -245 -8 -143 0 -250 3 -237 5 12 2 23 12 23 21 1 15 2 15 6
-1 2 -9 9 -14 15 -11 5 4 27 6 49 6 34 -1 39 2 39 21 0 12 5 29 11 37 9 13 10
13 7 0 -1 -8 1 -27 5 -42 6 -25 10 -26 44 -21 46 8 70 28 54 46 -5 7 -9 40 -7
73 2 32 4 83 5 112 1 31 6 52 12 52 7 0 9 -10 5 -24 -3 -14 -2 -28 4 -31 7 -4
7 -12 0 -25 -6 -11 -6 -21 -1 -24 9 -6 8 -122 0 -155 -2 -8 4 -17 14 -19 15
-3 17 7 18 100 1 57 0 118 -1 136 -1 17 3 32 8 32 15 0 22 -13 14 -24 -4 -6
-5 -27 -1 -46 3 -19 7 -28 8 -19 0 9 8 19 16 23 8 3 14 13 13 23 -4 27 15 121
20 100 3 -14 10 -17 28 -13z m-4514 -53 c4 -1 5 -7 2 -15 -5 -14 20 -46 37
-46 5 0 11 11 15 25 8 34 28 47 58 39 22 -5 24 -10 19 -36 -4 -20 -1 -33 8
-39 9 -6 10 -9 2 -9 -9 0 -9 -8 -2 -29 6 -15 9 -57 7 -92 -3 -62 -4 -64 -30
-64 -17 -1 -28 4 -28 12 0 7 7 13 15 13 8 0 15 8 15 18 1 9 3 42 6 72 l4 55
-20 -35 c-13 -22 -18 -26 -15 -12 5 16 2 22 -11 22 -12 0 -14 4 -7 13 17 21
43 97 34 97 -7 0 -14 -15 -25 -50 -12 -42 -31 -70 -48 -70 -15 0 -18 4 -13 18
13 30 10 46 -7 50 -15 3 -17 -2 -11 -28 6 -31 5 -32 -17 -20 -13 7 -25 8 -29
3 -5 -8 -41 -26 -41 -20 0 1 9 26 20 56 27 70 19 77 -9 9 -12 -29 -29 -66 -36
-83 l-14 -30 0 35 c1 54 29 139 48 142 13 3 42 2 73 -1z m-185 -40 c-2 -31 1
-38 13 -33 12 4 12 2 -2 -14 -9 -10 -24 -33 -32 -49 -13 -25 -16 -26 -16 -9 0
26 -31 28 -37 3 -4 -16 -7 -16 -19 -4 -16 16 -18 41 -4 50 6 3 10 11 10 16 0
6 -4 7 -10 4 -5 -3 -10 -1 -10 4 0 6 -4 11 -10 11 -5 0 -10 -12 -10 -26 0 -20
-4 -24 -19 -19 -14 4 -21 -1 -29 -25 -6 -16 -14 -30 -18 -30 -3 0 -4 7 0 15 3
8 1 15 -4 15 -6 0 -10 -12 -10 -27 0 -20 -3 -24 -11 -16 -15 15 47 153 68 153
10 0 12 -6 8 -20 -4 -11 -2 -20 4 -20 6 0 11 5 11 10 0 6 10 4 23 -5 26 -17
37 -12 37 17 0 11 5 16 10 13 6 -3 10 -1 10 6 0 10 3 10 12 1 8 -8 8 -15 -2
-27 -7 -8 -9 -15 -4 -15 14 0 29 14 30 28 2 24 4 32 8 32 3 0 4 -17 3 -39z
m2664 -264 c1 -34 4 -52 6 -39 5 25 4 25 38 12 25 -9 26 -14 15 -65 -1 -5 -1
-12 0 -15 8 -23 6 -40 -6 -40 -16 0 -19 -16 -4 -25 7 -4 8 -24 4 -51 -4 -29
-2 -49 6 -59 11 -13 7 -15 -29 -15 l-41 0 0 -55 0 -55 32 0 c45 0 27 -12 -21
-14 l-41 -2 0 51 c0 28 5 56 12 63 9 9 -10 12 -87 14 l-100 2 82 3 82 4 6 30
c4 17 4 75 0 129 -5 67 -4 100 4 104 6 4 11 24 11 45 0 21 3 41 6 44 15 15 24
-8 25 -66z m503 28 c2 -17 5 -34 5 -40 1 -5 17 -11 36 -12 30 -2 35 2 36 20 1
12 5 0 10 -28 9 -57 0 -193 -12 -201 -5 -3 -9 -11 -9 -17 0 -7 4 -6 11 3 7 12
9 8 7 -15 l-3 -30 -85 -1 c-47 -1 -73 1 -57 3 21 3 27 10 27 29 0 14 -6 24
-15 24 -9 0 -12 -6 -9 -15 4 -8 2 -15 -2 -15 -5 0 -10 15 -11 34 -1 29 1 33
18 29 18 -5 19 1 19 81 0 98 0 94 11 124 6 15 5 22 -4 23 -9 0 -9 2 1 6 6 2
12 12 12 21 0 24 8 10 14 -23z m-958 -90 c2 -62 0 -94 -6 -90 -6 3 -10 2 -10
-4 0 -5 5 -11 11 -13 7 -2 7 -12 -1 -32 -9 -25 -8 -28 7 -22 17 6 17 5 1 -8
-10 -7 -18 -23 -18 -35 0 -20 5 -21 90 -21 79 0 90 2 91 18 1 16 2 16 6 0 5
-20 23 -25 23 -6 0 6 -7 19 -16 29 -15 16 -15 20 0 41 19 27 21 84 3 91 -15 6
-11 67 4 67 5 0 8 3 7 8 -1 4 1 25 6 46 7 38 8 38 19 15 17 -34 20 -126 6
-161 -9 -23 -10 -32 0 -37 8 -5 9 -15 3 -32 -5 -13 -9 -39 -8 -57 l1 -32 -145
1 c-80 1 -135 4 -123 6 20 4 21 9 19 61 -2 31 -4 77 -5 102 -1 33 -4 41 -11
30 -8 -12 -10 -11 -10 8 0 12 4 22 9 22 11 0 16 16 26 74 10 59 17 36 21 -69z
m-1246 54 c0 -10 7 -19 15 -19 8 0 15 -4 15 -10 0 -5 -7 -10 -16 -10 -12 0
-15 -6 -9 -22 3 -13 9 -45 12 -71 4 -38 3 -47 -8 -45 -11 2 -15 -14 -17 -65
-2 -43 1 -67 7 -63 5 4 12 2 15 -3 4 -5 -53 -9 -141 -10 -82 0 -142 3 -135 5
6 3 12 12 12 20 0 19 16 18 24 -1 4 -11 21 -15 66 -15 68 0 63 -11 65 120 2
107 16 200 25 175 4 -11 6 -47 4 -80 -3 -50 -2 -54 5 -22 4 21 13 43 20 50 6
6 11 27 11 47 0 20 3 40 6 43 11 10 24 -3 24 -24z m-1262 15 c25 -7 30 -24 7
-24 -8 0 -15 -4 -15 -10 0 -5 7 -7 15 -4 12 5 15 -6 15 -62 0 -72 -5 -87 -30
-97 -12 -4 -11 -6 3 -6 14 -1 17 -11 17 -66 l0 -65 -39 0 -39 0 9 38 c11 49
11 115 0 108 -10 -7 -5 44 9 88 6 16 10 46 10 67 0 41 2 42 38 33z m312 -14
c0 -11 7 -20 15 -20 13 0 15 -13 13 -77 -3 -73 -4 -78 -28 -84 -24 -7 -24 -7
-2 -8 22 -1 23 -4 20 -63 l-3 -63 -44 -3 c-38 -3 -43 -1 -32 11 10 13 15 70
13 167 -1 14 1 36 4 50 2 14 7 44 10 68 6 43 34 61 34 22z m314 -3 c-1 -9 6
-19 15 -22 14 -4 15 -21 11 -147 l-5 -143 -48 -3 -48 -3 15 23 c8 13 15 32 14
43 0 11 2 37 5 58 3 20 2 37 -2 37 -12 0 -1 116 15 168 6 19 29 9 28 -11z
m320 -1 c-1 -9 4 -16 12 -16 11 0 14 -18 14 -80 0 -73 -2 -80 -20 -80 -11 0
-20 -4 -20 -10 0 -5 7 -7 15 -4 12 5 15 -5 15 -60 l0 -66 -144 0 -144 0 5 43
c7 55 13 60 13 11 l0 -40 78 -2 78 -1 1 64 c1 36 -3 65 -7 65 -5 0 -5 12 -1
28 4 15 6 33 4 40 -3 7 -1 20 3 30 10 22 11 29 13 49 1 13 4 14 13 5 8 -8 9
-18 1 -34 -11 -25 -7 -48 8 -48 5 0 9 9 9 19 0 11 5 23 10 26 6 3 10 21 10 39
0 18 3 36 7 40 11 11 28 0 27 -18z m627 7 c3 -41 -2 -251 -7 -285 l-6 -38 -96
2 c-66 1 -79 3 -39 5 52 4 57 6 57 28 0 13 5 27 10 30 6 4 10 -7 10 -25 0 -18
4 -29 10 -25 6 3 10 29 10 56 0 31 4 48 10 44 6 -3 10 3 10 14 0 12 -4 21 -10
21 -12 0 -13 97 -1 104 4 3 11 24 15 46 6 40 25 55 27 23z m623 -141 c-1 -96
1 -124 5 -82 4 44 10 64 19 63 6 -2 12 0 12 5 0 4 10 7 23 7 22 0 23 -3 21
-63 -2 -34 -5 -66 -8 -71 -3 -4 -40 -8 -83 -8 -43 0 -64 1 -48 4 28 4 30 6 29
46 -1 33 -5 41 -18 39 -20 -4 -21 12 -1 28 12 10 15 10 15 0 0 -8 3 -10 7 -7
3 4 5 34 4 67 -2 65 8 135 18 125 3 -4 5 -73 5 -153z m3873 -42 c8 -22 8 -30
0 -30 -8 0 -8 -3 0 -11 6 -6 9 -18 6 -27 -5 -12 -1 -14 20 -10 27 5 27 4 27
-51 1 -31 5 -75 9 -99 5 -24 5 -60 0 -80 -4 -20 -5 -39 0 -42 4 -3 8 -20 9
-37 2 -28 -1 -33 -20 -34 -21 -1 -22 -1 -3 -7 11 -4 20 -16 20 -27 0 -11 6
-19 13 -17 17 3 15 -56 -3 -74 -8 -9 -15 -29 -15 -45 0 -23 -6 -32 -27 -42
-16 -6 -31 -16 -35 -21 -6 -9 -126 -23 -129 -15 -1 2 -4 74 -8 159 l-6 155
-15 -105 c-8 -58 -16 -96 -18 -85 -1 11 5 65 13 120 26 159 27 165 11 117 -21
-63 -44 -244 -53 -412 -4 -80 -9 -126 -11 -103 -3 34 -7 42 -28 47 -31 8 -31
26 1 26 l25 0 0 235 c0 150 4 235 10 235 6 0 10 -19 10 -42 0 -54 9 -44 14 14
2 25 7 52 11 59 5 8 -1 6 -12 -3 -27 -25 -33 -23 -33 10 0 30 31 68 44 55 4
-5 14 1 22 11 15 22 20 121 5 111 -10 -6 -9 22 3 65 6 23 12 25 69 28 61 3 63
2 74 -28z m-6097 -310 c-8 -15 -6 -17 12 -12 17 4 20 2 15 -12 -4 -10 -7 -35
-7 -57 0 -28 -4 -39 -15 -39 -8 0 -15 -4 -15 -10 0 -5 4 -10 9 -10 13 0 22
-72 10 -86 -6 -7 -8 -18 -4 -24 3 -5 0 -10 -9 -10 -8 0 -21 -2 -28 -5 -11 -5
-13 18 -12 122 1 139 14 194 39 173 10 -9 12 -17 5 -30z m326 -11 c18 -49 18
-120 0 -113 -8 3 -17 1 -21 -5 -3 -6 1 -11 9 -11 23 0 27 -15 20 -69 -6 -43
-10 -50 -33 -54 -14 -3 -33 -1 -41 4 -8 4 -10 9 -5 9 6 0 9 21 7 50 -3 32 0
50 7 50 8 0 10 25 8 75 -2 41 0 75 5 75 4 0 8 7 8 16 0 27 23 10 36 -27z
m6889 31 c-3 -5 -1 -19 5 -30 6 -11 8 -26 3 -32 -8 -14 -5 -88 5 -103 4 -5 5
-21 3 -35 -4 -29 -52 -75 -62 -58 -4 6 -14 8 -22 5 -12 -4 -16 4 -19 40 -2 24
0 47 5 50 5 3 6 12 3 20 -4 9 -1 22 5 29 9 11 8 18 -1 29 -7 9 -8 15 -2 15 5
0 8 8 5 19 -6 25 12 35 30 16 24 -23 40 -19 33 9 -3 12 -3 26 1 30 10 9 15 7
8 -4z m-4246 -307 c-1 -10 -1 -27 0 -38 2 -19 2 -19 15 -2 18 23 24 13 26 -43
3 -76 2 -80 -25 -80 -26 0 -34 -15 -12 -23 6 -2 0 -6 -15 -9 -20 -4 -28 -1
-28 8 0 8 -7 14 -15 14 -8 0 -15 9 -15 20 0 11 5 20 10 20 6 0 5 6 -2 14 -11
13 -14 13 -24 0 -6 -8 -26 -14 -45 -14 -37 0 -30 15 11 23 18 3 15 5 -12 6
-31 1 -38 -3 -42 -21 -3 -13 -7 -32 -9 -43 -3 -11 -5 6 -6 37 0 31 4 60 10 64
8 4 8 9 0 17 -20 20 -11 27 33 27 51 0 78 -8 70 -21 -3 -5 2 -9 11 -9 9 0 13
-4 10 -10 -3 -5 -2 -10 3 -10 5 0 13 20 16 45 5 30 12 45 22 45 9 0 14 -8 13
-17z m-2659 -24 l-25 -7 23 -7 c21 -7 22 -12 20 -81 -2 -58 -6 -74 -18 -74 -8
0 -24 -3 -35 -6 -11 -3 -29 2 -40 11 -15 13 -16 15 -3 11 11 -3 18 3 22 19 11
42 -11 66 -49 54 -21 -6 -91 -8 -112 -4 -28 6 -31 24 -4 22 11 0 18 -4 15 -8
-2 -4 10 -1 27 8 24 12 36 13 50 5 27 -17 33 13 6 32 -21 14 -21 15 21 15 27
1 42 -3 42 -11 0 -9 3 -8 9 2 6 8 8 17 5 21 -6 10 26 16 51 10 18 -4 18 -6 -5
-12z m315 1 l-30 -7 28 -11 c15 -6 27 -18 27 -26 0 -33 -13 -76 -24 -76 -7 0
-13 -10 -13 -22 -1 -13 1 -18 5 -11 5 7 13 9 21 4 20 -13 -1 -21 -61 -26 -29
-2 -44 -2 -33 1 26 8 35 22 35 59 0 22 -7 33 -25 41 -15 8 -25 8 -27 2 -5 -13
-118 -20 -118 -7 0 5 18 9 40 9 22 0 40 5 40 10 0 6 11 10 25 10 14 0 25 5 25
10 0 6 -9 10 -19 10 -11 0 -23 5 -26 11 -5 7 5 9 26 7 25 -2 34 -8 33 -20 -1
-10 4 -18 12 -18 12 0 17 18 13 46 -2 13 23 21 49 15 l27 -5 -30 -6z m2106
-78 c-1 -79 -7 -102 -27 -102 -9 0 -12 5 -8 12 5 8 2 9 -9 5 -14 -5 -17 0 -17
33 0 30 -4 40 -21 45 -11 4 -23 4 -26 1 -4 -3 1 -6 10 -6 10 0 17 -4 17 -9 0
-4 -18 -5 -40 -1 -46 8 -50 6 -50 -33 0 -47 -14 -22 -17 31 -2 26 2 59 8 75
11 26 14 27 85 27 52 0 74 4 74 13 0 6 5 4 11 -7 6 -10 11 -48 10 -84z m743
83 c-5 -11 2 -15 27 -16 19 -1 42 -1 52 0 15 2 17 -7 17 -73 0 -74 -1 -76 -25
-76 -14 0 -25 5 -25 10 0 6 6 10 14 8 8 -2 15 2 14 7 0 6 -5 8 -11 6 -7 -2
-24 -6 -39 -9 -16 -2 -28 -11 -28 -19 0 -10 6 -12 19 -8 11 3 22 1 26 -5 4 -6
-7 -10 -29 -10 -22 0 -36 -5 -36 -12 0 -9 -4 -8 -10 2 -5 8 -10 11 -10 7 0 -5
-5 -5 -12 -1 -8 5 -6 10 8 15 15 6 11 8 -15 8 -32 1 -33 3 -28 30 6 26 2 32
-25 45 -17 9 -41 13 -54 10 -20 -5 -24 -12 -24 -45 0 -36 -2 -39 -29 -39 -27
0 -29 3 -33 46 -2 25 -1 47 1 50 2 2 28 4 57 4 45 0 59 5 87 30 23 20 45 30
66 30 19 0 30 4 26 10 -3 6 1 10 9 10 10 0 13 -6 10 -15z m-970 -29 c-4 -11
-6 -34 -5 -51 3 -33 3 -56 0 -82 -2 -14 -4 -13 -18 4 -9 11 -22 18 -29 15 -7
-2 -12 6 -12 22 0 35 -20 33 -21 -1 0 -27 -1 -27 -9 -5 -5 12 -17 22 -27 22
-15 0 -16 2 -3 10 17 11 10 21 -17 23 -20 1 -23 17 -9 49 9 20 106 25 106 5 0
-7 5 -4 11 5 14 25 41 12 33 -16z m4494 -73 c2 -7 12 -13 23 -13 12 0 16 -5
12 -15 -3 -9 -8 -13 -11 -10 -10 10 -42 -28 -42 -51 0 -54 -2 -54 -149 -53
-75 0 -149 -3 -164 -6 -39 -10 -35 15 13 82 22 31 40 62 40 70 0 18 271 14
278 -4z m-1080 -197 c2 67 5 83 20 90 26 11 65 12 79 1 7 -5 23 -7 36 -5 19 4
28 -3 46 -34 18 -31 19 -38 6 -38 -23 0 -18 -28 7 -36 14 -4 25 -1 33 10 7 9
21 16 32 16 10 0 24 5 31 12 9 9 12 2 12 -34 0 -26 -5 -50 -10 -53 -6 -4 -8
-10 -5 -15 11 -18 14 -103 4 -122 -7 -14 -7 -23 2 -34 6 -8 9 -17 5 -21 -3 -3
-6 0 -7 8 -1 8 -4 3 -8 -11 -12 -42 -38 -37 -52 10 -11 37 -14 39 -21 21 -4
-12 -14 -21 -22 -21 -9 0 -19 -14 -24 -32 l-9 -33 -67 1 c-37 0 -71 5 -74 11
-8 11 -39 11 -62 -1 -8 -4 0 6 18 22 26 23 29 30 15 29 -14 -2 -18 5 -17 28 1
17 5 111 10 210 l9 180 5 -120 c5 -106 6 -111 8 -39z m-127 52 c0 -40 3 -56 8
-43 7 18 8 19 18 0 10 -17 11 -17 22 3 6 11 12 32 13 46 4 41 17 30 20 -16 4
-55 -11 -126 -28 -132 -9 -3 -11 1 -8 12 5 14 3 13 -10 -2 -9 -11 -16 -27 -16
-35 0 -14 -1 -14 -10 -1 -9 14 -10 11 -10 -57 0 -5 5 -8 10 -8 6 0 10 -4 9
-10 0 -5 -6 -9 -13 -7 -7 1 -19 -5 -26 -13 -7 -8 -19 -15 -27 -15 -7 0 -16 -7
-19 -15 -6 -15 -34 -22 -34 -8 0 4 10 17 22 30 13 14 17 23 9 23 -8 0 -11 6
-7 15 7 20 -11 19 -22 -1 -6 -11 -11 -13 -16 -5 -4 6 -1 11 6 11 7 1 3 6 -10
14 -21 11 -22 14 -8 25 13 11 16 36 16 126 0 61 3 115 7 118 3 4 28 7 55 7
l48 0 1 -62z m-2831 40 c47 -17 95 -23 174 -20 59 2 85 7 75 13 -9 6 3 9 38 9
28 0 53 -4 55 -9 3 -10 33 -14 86 -12 18 1 31 5 28 9 -2 4 20 9 50 10 31 1 54
-2 54 -8 0 -5 12 -10 28 -11 23 0 24 -2 8 -8 -19 -7 -19 -8 2 -13 17 -5 22
-13 21 -35 -1 -18 -3 -21 -6 -10 -6 25 -28 15 -27 -12 1 -21 -3 -22 -53 -19
-47 3 -53 1 -54 -17 0 -20 0 -20 -9 1 -7 19 -17 20 -191 22 -161 2 -186 5
-197 20 -13 16 -13 16 -10 -3 3 -18 -3 -20 -49 -23 -51 -3 -53 -2 -53 22 0 17
-6 26 -16 26 -8 0 -12 5 -9 10 3 6 -4 10 -16 10 -12 0 -19 3 -15 8 4 4 13 7
19 7 5 0 12 5 14 12 3 7 -4 11 -16 10 -11 -1 -18 -3 -16 -5 2 -3 -2 -11 -10
-18 -18 -18 -87 -14 -93 5 -3 9 0 11 8 6 6 -4 22 -3 33 2 57 26 111 34 147 21z"/>
<path d="M6722 1712 c-186 -100 -307 -501 -317 -1052 l-4 -205 9 150 c18 304
63 641 82 613 5 -8 6 -4 3 12 -9 39 70 286 102 318 7 7 13 17 13 21 0 5 15 27
33 50 40 51 106 90 167 101 l45 8 -50 0 c-30 1 -63 -6 -83 -16z"/>
<path d="M10424 5479 c-3 -6 -10 -52 -14 -103 -4 -50 -12 -103 -18 -117 -11
-27 -15 -89 -12 -169 1 -38 3 -41 10 -20 4 14 26 63 49 109 22 47 41 91 41 98
0 7 -10 18 -22 24 -13 6 -24 13 -26 14 -1 1 14 32 33 69 46 88 46 106 1 106
-19 0 -38 -5 -42 -11z"/>
<path d="M10239 5344 c-12 -26 -23 -78 -26 -122 -3 -42 -12 -102 -19 -132 -16
-63 -18 -148 -4 -170 8 -13 10 -13 10 1 0 9 16 48 34 87 50 101 54 120 23 131
l-24 10 33 68 c35 69 42 119 24 154 -16 30 -29 23 -51 -27z"/>
<path d="M10053 5183 c-8 -21 -19 -78 -24 -128 -4 -49 -12 -108 -18 -130 -12
-47 -14 -145 -3 -145 4 0 13 12 20 28 6 15 25 56 41 92 l30 65 -24 20 -25 21
25 36 c41 60 47 178 9 178 -8 0 -22 -17 -31 -37z"/>
<path d="M4989 5196 c11 -13 11 -117 0 -126 -4 -3 -9 -30 -12 -60 -3 -30 -14
-80 -23 -110 -9 -30 -17 -67 -18 -82 0 -16 -4 -28 -8 -28 -5 0 -8 -6 -8 -12 0
-7 -14 -42 -30 -78 -15 -35 -26 -68 -24 -72 3 -4 0 -8 -7 -8 -7 0 -10 -3 -6
-6 3 -4 -1 -13 -9 -21 -13 -14 -13 -18 1 -39 12 -19 15 -45 13 -112 -3 -77 -5
-87 -21 -84 -14 2 -17 -3 -15 -30 1 -19 -1 -39 -5 -45 -7 -12 8 -26 31 -29 8
-2 11 3 8 12 -3 8 -1 14 4 14 6 0 10 -5 10 -11 0 -5 6 -7 13 -3 6 4 -1 -8 -18
-26 -16 -18 -24 -30 -17 -26 8 5 12 0 12 -17 0 -20 4 -23 30 -19 35 5 44 44
12 49 -24 3 -26 13 -6 27 12 9 20 11 23 4 2 -6 7 -5 12 3 6 10 9 11 9 2 0 -7
5 -13 11 -13 5 0 8 4 4 9 -7 13 7 20 44 25 26 3 31 0 32 -18 1 -18 2 -18 6 -3
4 15 12 18 34 15 21 -3 29 0 29 11 0 13 2 14 9 2 5 -8 7 -20 5 -26 -3 -7 1
-15 9 -18 10 -4 13 3 11 27 -2 17 -1 23 2 13 7 -23 30 -16 27 9 -9 75 -18 91
-41 67 -16 -16 -17 -12 -23 58 l-5 74 -2 -67 c-1 -37 -6 -70 -12 -73 -6 -4 -8
19 -5 64 3 42 1 72 -5 76 -5 3 -10 16 -9 28 1 20 2 20 9 -3 l8 -25 2 25 2 25
8 -25 c8 -25 8 -24 9 5 1 21 4 26 10 16 7 -11 9 -11 14 0 3 8 6 -1 6 -19 1
-22 5 -31 12 -26 13 8 6 91 -8 105 -14 14 -63 21 -63 9 0 -6 -9 -6 -24 0 -13
5 -26 7 -29 4 -11 -11 -67 -12 -67 -1 0 8 -3 8 -8 2 -10 -14 -74 -15 -69 -1 2
7 39 12 90 14 51 2 87 7 87 13 0 6 -8 9 -17 8 -10 -1 -29 0 -43 1 -24 2 -24 3
5 10 28 7 28 8 5 9 -20 1 -22 3 -10 11 22 14 40 12 40 -5 0 -20 17 -19 29 3
10 16 10 15 12 -3 1 -16 2 -16 8 5 6 20 3 27 -16 33 -13 5 -23 13 -23 18 0 6
5 7 10 4 6 -3 10 1 10 9 0 9 -4 16 -9 16 -5 0 -5 15 -1 35 4 19 4 35 -1 37 -5
2 -11 18 -13 36 -2 18 -6 35 -9 39 -4 3 -2 14 3 24 7 12 6 19 -2 21 -8 3 -12
44 -12 131 -1 117 -2 127 -20 127 -14 0 -16 -3 -7 -14z"/>
<path d="M9890 5055 c-7 -8 -17 -50 -22 -92 -5 -43 -13 -103 -18 -134 -12 -69
-12 -216 0 -179 4 14 24 59 44 100 l36 75 -23 18 -23 18 28 57 c29 60 35 101
18 133 -13 23 -23 24 -40 4z"/>
<path d="M9731 4916 c-7 -8 -17 -46 -22 -83 -6 -37 -14 -98 -19 -136 -12 -80
-13 -193 -2 -183 4 4 7 11 7 14 1 4 6 16 12 27 6 11 22 48 36 82 25 61 22 83
-9 83 -7 0 -10 8 -7 20 3 11 8 20 12 20 4 0 15 24 25 54 25 74 2 145 -33 102z"/>
<path d="M7100 4870 c0 -5 -18 -14 -40 -20 -42 -11 -51 -31 -31 -68 5 -9 11
-44 14 -77 3 -33 6 -61 6 -62 1 -2 5 -3 9 -3 5 0 7 32 4 71 -4 64 -3 70 14 67
13 -2 23 -17 31 -48 l11 -45 1 38 c1 25 6 37 15 37 8 0 19 15 26 33 l11 32 15
-28 c9 -16 13 -31 10 -35 -3 -3 -6 0 -6 6 0 7 -5 12 -11 12 -5 0 -7 -4 -4 -10
3 -5 -1 -10 -9 -10 -10 0 -15 -9 -15 -27 0 -16 -3 -42 -6 -60 -6 -27 -13 -33
-51 -42 -33 -8 -44 -16 -44 -30 0 -11 6 -22 13 -24 9 -4 8 -8 -3 -16 -13 -9
-13 -11 1 -11 19 0 32 -56 15 -58 -81 -12 -98 -26 -77 -65 6 -12 13 -65 15
-117 3 -90 5 -95 26 -98 12 -2 24 -12 27 -22 6 -21 32 -35 45 -22 4 4 9 47 10
95 1 48 5 87 8 87 7 0 50 -47 50 -54 0 -3 -7 -6 -16 -8 -12 -2 -18 -14 -19
-38 -1 -19 -5 -93 -10 -165 -4 -71 -5 -128 -2 -125 2 3 8 48 11 100 9 135 20
190 38 190 6 0 7 -10 2 -27 -4 -16 -7 -61 -6 -100 1 -51 -3 -73 -11 -73 -8 0
-7 -4 2 -9 12 -8 12 -12 2 -24 -9 -12 -9 -16 1 -19 10 -4 10 -8 -1 -21 -12
-15 -11 -17 3 -17 13 0 16 13 18 68 0 37 2 72 3 77 2 6 3 36 4 67 1 45 6 63
27 87 14 17 21 31 16 31 -5 0 -12 8 -16 18 -3 9 -9 24 -12 32 -4 12 -3 12 4 2
7 -11 10 -11 15 2 4 9 16 16 27 16 11 0 20 3 21 8 0 4 2 52 4 107 3 55 7 114
10 131 4 26 1 33 -22 45 -16 8 -36 23 -45 34 -17 20 -17 20 -11 -2 5 -21 2
-23 -31 -23 -41 0 -45 13 -16 50 15 18 18 20 13 6 -4 -12 -3 -17 4 -13 6 4 14
23 17 42 9 46 26 45 27 -2 l1 -38 9 45 c14 68 8 103 -20 116 -26 13 -53 0 -44
-22 2 -6 -3 -14 -11 -17 -11 -5 -15 0 -13 15 1 15 -5 23 -25 29 -16 4 -28 3
-28 -1z"/>
<path d="M9582 4787 c-12 -14 -21 -63 -26 -142 -2 -27 -10 -82 -16 -121 -7
-39 -10 -84 -6 -100 7 -27 10 -25 42 51 38 91 41 110 17 123 -15 9 -15 13 5
56 37 77 24 181 -16 133z"/>
<path d="M9439 4659 c-11 -22 -25 -134 -35 -284 l-5 -80 27 49 c14 27 32 66
39 87 12 34 12 39 -6 51 -18 13 -18 14 1 57 36 79 17 190 -21 120z"/>
<path d="M9310 4544 c-6 -14 -12 -51 -15 -82 -3 -31 -11 -92 -17 -134 -6 -43
-7 -90 -3 -105 6 -26 8 -24 36 41 33 77 36 101 13 114 -14 8 -14 13 5 50 21
42 26 78 15 120 -8 29 -22 28 -34 -4z"/>
<path d="M7093 3893 c-51 -7 -37 -39 29 -68 31 -14 32 -15 11 -21 -13 -3 -20
-10 -18 -15 3 -4 12 -6 20 -2 13 4 15 -15 16 -123 0 -74 4 -120 8 -109 7 17 9
15 16 -15 5 -19 8 -42 6 -51 -1 -9 6 -22 15 -30 16 -13 17 -8 10 66 -3 44 -6
123 -6 175 1 52 1 105 1 118 -1 13 5 22 14 22 21 0 48 42 32 52 -12 8 -94 8
-154 1z"/>
<path d="M10390 3489 c-399 -135 -600 -219 -949 -393 -434 -218 -892 -538
-1106 -772 -235 -258 -351 -426 -501 -729 -177 -358 -284 -809 -314 -1325 -14
-229 -13 -270 5 -270 12 0 15 14 15 63 0 34 4 100 10 147 5 47 10 114 12 148
2 35 6 66 10 68 5 3 8 24 8 47 0 95 54 385 112 597 53 199 80 272 159 435 126
261 183 354 357 586 30 41 258 287 292 315 83 70 264 204 276 204 5 0 18 10
29 23 32 37 185 135 325 208 36 19 67 37 70 40 11 13 155 90 325 173 169 83
180 86 193 69 13 -17 14 -17 8 2 -6 21 19 34 254 130 96 40 407 146 465 159
l50 11 3 48 c4 56 7 55 -108 16z"/>
<path d="M7164 3408 c-4 -5 -15 -8 -25 -5 -20 5 -45 -25 -34 -42 3 -5 0 -11
-7 -13 -9 -3 -8 -9 5 -22 13 -14 17 -36 18 -104 0 -72 2 -83 11 -62 6 14 12
48 13 75 3 104 5 125 15 125 6 0 10 -36 10 -88 0 -75 3 -93 20 -112 11 -13 19
-24 18 -25 -2 -2 -29 -6 -60 -9 -49 -6 -58 -5 -58 8 0 9 -4 16 -10 16 -13 0
-13 -6 2 -33 6 -12 13 -53 15 -91 2 -39 5 -72 7 -73 2 -2 11 0 21 3 12 5 15
14 11 35 -3 17 -1 29 7 33 9 3 9 5 0 5 -9 1 -10 8 -2 27 5 15 7 34 4 44 -3 11
0 17 10 17 9 0 15 -10 15 -25 0 -17 4 -23 15 -19 8 4 17 2 20 -3 3 -5 -5 -11
-17 -13 -20 -4 -19 -4 5 -6 32 -1 27 -20 -6 -22 -20 -1 -20 -2 3 -9 24 -8 24
-8 3 -9 -18 -1 -23 -7 -23 -26 0 -24 2 -25 65 -25 53 0 63 3 59 15 -8 21 13
19 25 -2 14 -26 24 -9 16 26 -6 27 -11 31 -41 31 -21 0 -33 4 -29 10 3 6 18 7
33 4 21 -4 24 -3 12 5 -10 7 -11 11 -2 11 7 0 12 13 12 30 0 22 -5 30 -17 31
-10 0 -13 2 -8 5 6 2 9 51 8 124 -2 73 1 120 7 120 6 0 10 7 10 15 0 11 -12
15 -45 15 -41 0 -58 -11 -37 -24 5 -3 9 -66 10 -141 1 -127 -7 -164 -23 -112
-10 32 -5 201 6 205 5 2 9 11 9 20 0 15 -2 15 -10 2 -8 -12 -10 -11 -8 5 3 41
-3 53 -27 57 -14 3 -28 1 -31 -4z"/>
<path d="M10250 3276 c-454 -153 -731 -278 -1171 -529 -121 -69 -382 -248
-504 -345 -137 -109 -347 -340 -467 -513 -132 -192 -273 -459 -337 -644 -98
-280 -194 -774 -190 -980 1 -41 6 -14 15 80 63 663 234 1134 574 1590 242 324
520 553 1012 833 334 191 812 395 1175 501 74 22 138 42 140 45 3 2 3 13 1 24
-3 18 -20 14 -248 -62z"/>
<path d="M10305 3190 c-544 -167 -1041 -397 -1472 -683 -219 -145 -337 -241
-470 -383 -431 -460 -661 -975 -742 -1664 -27 -228 -36 -460 -18 -460 11 0 16
31 21 131 36 685 241 1301 571 1715 22 28 51 66 65 84 49 66 179 206 252 270
100 89 342 270 362 270 3 0 33 19 68 43 115 78 328 197 353 197 7 0 15 4 17 9
9 25 458 223 510 225 16 1 28 6 28 11 0 16 379 149 558 196 l92 24 0 32 c0 25
-4 33 -17 33 -10 -1 -90 -23 -178 -50z"/>
<path d="M10385 3089 c-172 -50 -471 -150 -550 -184 -16 -7 -73 -30 -125 -50
-318 -125 -752 -362 -1030 -563 -321 -232 -639 -643 -802 -1036 -138 -334
-238 -820 -238 -1162 l0 -94 1430 0 1430 0 0 1560 c0 858 -3 1559 -7 1559 -5
-1 -53 -14 -108 -30z"/>
<path d="M6217 2763 c-12 -3 -16 -10 -12 -24 4 -12 2 -19 -7 -19 -10 0 -13
-10 -9 -37 4 -34 5 -35 11 -13 6 22 7 21 11 -12 5 -37 -4 -51 -14 -25 -3 6 -6
2 -6 -10 -1 -14 5 -23 14 -23 9 0 18 -7 21 -15 4 -8 11 -12 16 -9 6 4 14 1 18
-6 5 -8 10 -1 15 21 4 19 12 40 19 48 8 11 8 15 -1 18 -19 7 -15 47 7 73 11
12 17 27 14 31 -5 9 -65 10 -97 2z"/>
<path d="M7945 2377 c-61 -35 -170 -98 -243 -140 -73 -42 -159 -90 -192 -107
l-60 -30 1 -183 c0 -100 4 -191 9 -202 4 -11 5 66 2 170 l-5 191 35 10 c19 6
117 60 219 119 101 60 213 124 249 142 57 29 110 76 98 88 -2 2 -53 -24 -113
-58z"/>
<path d="M7851 2254 c-80 -45 -193 -106 -253 -136 l-109 -53 7 -300 c4 -165 9
-403 13 -530 l6 -230 23 115 c23 120 31 323 12 335 -6 4 -6 15 0 31 6 14 7 64
3 114 -5 70 -3 90 7 90 10 0 10 3 0 15 -6 8 -9 23 -5 36 4 12 3 19 -2 16 -10
-6 -10 34 0 50 4 6 4 13 0 15 -5 1 -6 36 -5 77 3 49 7 69 13 60 7 -11 9 -8 9
9 0 13 -4 20 -10 17 -5 -3 -10 -3 -10 2 0 4 80 49 178 98 l177 90 49 78 c27
42 47 79 45 81 -2 2 -69 -34 -148 -80z"/>
<path d="M6234 2176 c-3 -8 -4 -25 -1 -38 4 -20 4 -20 6 5 2 52 21 17 21 -39
0 -52 -2 -55 -22 -52 -21 3 -23 9 -26 66 -2 34 -8 62 -13 62 -6 0 -8 -8 -5
-17 3 -10 6 -44 7 -75 1 -31 6 -55 11 -52 4 3 8 -11 8 -30 0 -20 5 -36 10 -36
6 0 10 16 10 35 0 37 13 47 24 18 4 -9 1 -20 -6 -25 -11 -6 -10 -8 0 -8 7 0
10 -4 7 -10 -4 -6 8 -10 28 -10 l35 0 4 55 c1 30 0 55 -4 55 -4 0 -5 7 -1 16
5 13 1 15 -18 10 -24 -7 -24 -7 -4 10 20 16 20 16 -2 10 -19 -6 -22 -3 -25 26
-3 35 -33 52 -44 24z"/>
<path d="M7796 2091 c-33 -16 -63 -37 -67 -47 -9 -23 -9 -137 0 -179 l6 -30
17 45 c9 25 20 63 24 85 7 36 8 38 14 15 7 -24 7 -24 17 10 6 19 22 53 37 74
43 65 39 67 -48 27z"/>
</g>
</svg>